# MagicaVoxel @ Ephtracy

# material
mtllib Flower.mtl
usemtl palette

# normals
vn -1 0 0
vn 1 0 0
vn 0 0 1
vn 0 0 -1
vn 0 -1 0
vn 0 1 0

# texcoords
vt 0.0136719 0.5
vt 0.0292969 0.5
vt 0.0410156 0.5
vt 0.0449219 0.5

# verts
v -20 0 20
v -20 0 -20
v -20 1 20
v -20 1 -20
v -18 1 18
v -18 1 -17
v -18 2 18
v -18 2 -17
v -16 2 16
v -16 2 -15
v -16 3 16
v -16 3 -15
v -14 3 14
v -14 3 -13
v -14 4 14
v -14 4 -13
v -11 4 12
v -11 4 -11
v -11 5 12
v -11 5 -11
v -9 5 10
v -9 5 -9
v -9 6 10
v -9 6 -9
v -7 6 8
v -7 6 -7
v -7 7 8
v -7 7 -7
v -5 7 6
v -5 7 -5
v -5 8 6
v -5 8 -5
v -3 8 4
v -3 8 -3
v -3 9 4
v -3 9 -3
v 0 9 1
v 0 9 -0
v 0 13 2
v 0 13 1
v 0 13 -0
v 0 13 -1
v 0 14 3
v 0 14 2
v 0 14 -1
v 0 14 -2
v 0 15 4
v 0 15 3
v 0 15 2
v 0 15 1
v 0 15 -0
v 0 15 -1
v 0 15 -2
v 0 15 -3
v 0 16 5
v 0 16 4
v 0 16 -3
v 0 16 -4
v 0 17 5
v 0 17 4
v 0 17 -3
v 0 17 -4
v 0 18 4
v 0 18 3
v 0 18 2
v 0 18 -1
v 0 18 -2
v 0 18 -3
v 0 19 3
v 0 19 2
v 0 19 -1
v 0 19 -2
v 0 20 2
v 0 20 1
v 0 20 -0
v 0 20 -1
v 0 21 1
v 0 21 -0
v 1 9 1
v 1 9 -0
v 1 13 2
v 1 13 1
v 1 13 -0
v 1 13 -1
v 1 14 3
v 1 14 2
v 1 14 -1
v 1 14 -2
v 1 15 4
v 1 15 3
v 1 15 2
v 1 15 1
v 1 15 -0
v 1 15 -1
v 1 15 -2
v 1 15 -3
v 1 16 5
v 1 16 4
v 1 16 -3
v 1 16 -4
v 1 17 5
v 1 17 4
v 1 17 -3
v 1 17 -4
v 1 18 4
v 1 18 3
v 1 18 2
v 1 18 -1
v 1 18 -2
v 1 18 -3
v 1 19 3
v 1 19 2
v 1 19 -1
v 1 19 -2
v 1 20 2
v 1 20 1
v 1 20 -0
v 1 20 -1
v 1 21 1
v 1 21 -0
v 4 8 4
v 4 8 -3
v 4 9 4
v 4 9 -3
v 6 7 6
v 6 7 -5
v 6 8 6
v 6 8 -5
v 8 6 8
v 8 6 -7
v 8 7 8
v 8 7 -7
v 10 5 10
v 10 5 -9
v 10 6 10
v 10 6 -9
v 12 4 12
v 12 4 -11
v 12 5 12
v 12 5 -11
v 13 3 14
v 13 3 -13
v 13 4 14
v 13 4 -13
v 15 2 16
v 15 2 -15
v 15 3 16
v 15 3 -15
v 17 1 18
v 17 1 -17
v 17 2 18
v 17 2 -17
v 20 0 20
v 20 0 -20
v 20 1 20
v 20 1 -20
v -20 0 20
v -20 1 20
v 20 0 20
v 20 1 20
v -18 1 18
v -18 2 18
v 17 1 18
v 17 2 18
v -16 2 16
v -16 3 16
v 15 2 16
v 15 3 16
v -14 3 14
v -14 4 14
v 13 3 14
v 13 4 14
v -11 4 12
v -11 5 12
v 12 4 12
v 12 5 12
v -9 5 10
v -9 6 10
v 10 5 10
v 10 6 10
v -7 6 8
v -7 7 8
v 8 6 8
v 8 7 8
v -5 7 6
v -5 8 6
v 6 7 6
v 6 8 6
v 0 16 5
v 0 17 5
v 1 16 5
v 1 17 5
v -3 8 4
v -3 9 4
v 0 15 4
v 0 16 4
v 0 17 4
v 0 18 4
v 1 15 4
v 1 16 4
v 1 17 4
v 1 18 4
v 4 8 4
v 4 9 4
v 0 14 3
v 0 15 3
v 0 18 3
v 0 19 3
v 1 14 3
v 1 15 3
v 1 18 3
v 1 19 3
v 0 13 2
v 0 14 2
v 0 19 2
v 0 20 2
v 1 13 2
v 1 14 2
v 1 19 2
v 1 20 2
v 0 9 1
v 0 13 1
v 0 20 1
v 0 21 1
v 1 9 1
v 1 13 1
v 1 20 1
v 1 21 1
v 0 9 -0
v 0 13 -0
v 0 20 -0
v 0 21 -0
v 1 9 -0
v 1 13 -0
v 1 20 -0
v 1 21 -0
v 0 13 -1
v 0 14 -1
v 0 19 -1
v 0 20 -1
v 1 13 -1
v 1 14 -1
v 1 19 -1
v 1 20 -1
v 0 14 -2
v 0 15 -2
v 0 18 -2
v 0 19 -2
v 1 14 -2
v 1 15 -2
v 1 18 -2
v 1 19 -2
v -3 8 -3
v -3 9 -3
v 0 15 -3
v 0 16 -3
v 0 17 -3
v 0 18 -3
v 1 15 -3
v 1 16 -3
v 1 17 -3
v 1 18 -3
v 4 8 -3
v 4 9 -3
v 0 16 -4
v 0 17 -4
v 1 16 -4
v 1 17 -4
v -5 7 -5
v -5 8 -5
v 6 7 -5
v 6 8 -5
v -7 6 -7
v -7 7 -7
v 8 6 -7
v 8 7 -7
v -9 5 -9
v -9 6 -9
v 10 5 -9
v 10 6 -9
v -11 4 -11
v -11 5 -11
v 12 4 -11
v 12 5 -11
v -14 3 -13
v -14 4 -13
v 13 3 -13
v 13 4 -13
v -16 2 -15
v -16 3 -15
v 15 2 -15
v 15 3 -15
v -18 1 -17
v -18 2 -17
v 17 1 -17
v 17 2 -17
v -20 0 -20
v -20 1 -20
v 20 0 -20
v 20 1 -20
v -20 0 20
v 20 0 20
v -20 0 -20
v 20 0 -20
v 0 13 2
v 1 13 2
v 0 13 1
v 1 13 1
v 0 13 -0
v 1 13 -0
v 0 13 -1
v 1 13 -1
v 0 14 3
v 1 14 3
v 0 14 2
v 1 14 2
v 0 14 -1
v 1 14 -1
v 0 14 -2
v 1 14 -2
v 0 15 4
v 1 15 4
v 0 15 3
v 1 15 3
v 0 15 -2
v 1 15 -2
v 0 15 -3
v 1 15 -3
v 0 16 5
v 1 16 5
v 0 16 4
v 1 16 4
v 0 16 -3
v 1 16 -3
v 0 16 -4
v 1 16 -4
v -20 1 20
v 20 1 20
v -18 1 18
v 17 1 18
v -18 1 -17
v 17 1 -17
v -20 1 -20
v 20 1 -20
v -18 2 18
v 17 2 18
v -16 2 16
v 15 2 16
v -16 2 -15
v 15 2 -15
v -18 2 -17
v 17 2 -17
v -16 3 16
v 15 3 16
v -14 3 14
v 13 3 14
v -14 3 -13
v 13 3 -13
v -16 3 -15
v 15 3 -15
v -14 4 14
v 13 4 14
v -11 4 12
v 12 4 12
v -11 4 -11
v 12 4 -11
v -14 4 -13
v 13 4 -13
v -11 5 12
v 12 5 12
v -9 5 10
v 10 5 10
v -9 5 -9
v 10 5 -9
v -11 5 -11
v 12 5 -11
v -9 6 10
v 10 6 10
v -7 6 8
v 8 6 8
v -7 6 -7
v 8 6 -7
v -9 6 -9
v 10 6 -9
v -7 7 8
v 8 7 8
v -5 7 6
v 6 7 6
v -5 7 -5
v 6 7 -5
v -7 7 -7
v 8 7 -7
v -5 8 6
v 6 8 6
v -3 8 4
v 4 8 4
v -3 8 -3
v 4 8 -3
v -5 8 -5
v 6 8 -5
v -3 9 4
v 4 9 4
v 0 9 1
v 1 9 1
v 0 9 -0
v 1 9 -0
v -3 9 -3
v 4 9 -3
v 0 17 5
v 1 17 5
v 0 17 4
v 1 17 4
v 0 17 -3
v 1 17 -3
v 0 17 -4
v 1 17 -4
v 0 18 4
v 1 18 4
v 0 18 3
v 1 18 3
v 0 18 -2
v 1 18 -2
v 0 18 -3
v 1 18 -3
v 0 19 3
v 1 19 3
v 0 19 2
v 1 19 2
v 0 19 -1
v 1 19 -1
v 0 19 -2
v 1 19 -2
v 0 20 2
v 1 20 2
v 0 20 1
v 1 20 1
v 0 20 -0
v 1 20 -0
v 0 20 -1
v 1 20 -1
v 0 21 1
v 1 21 1
v 0 21 -0
v 1 21 -0

# faces
f 3/1/1 2/1/1 1/1/1
f 4/1/1 2/1/1 3/1/1
f 7/1/1 6/1/1 5/1/1
f 8/1/1 6/1/1 7/1/1
f 11/1/1 10/1/1 9/1/1
f 12/1/1 10/1/1 11/1/1
f 15/1/1 14/1/1 13/1/1
f 16/1/1 14/1/1 15/1/1
f 19/1/1 18/1/1 17/1/1
f 20/1/1 18/1/1 19/1/1
f 23/1/1 22/1/1 21/1/1
f 24/1/1 22/1/1 23/1/1
f 27/1/1 26/1/1 25/1/1
f 28/1/1 26/1/1 27/1/1
f 31/1/1 30/1/1 29/1/1
f 32/1/1 30/1/1 31/1/1
f 35/1/1 34/1/1 33/1/1
f 36/1/1 34/1/1 35/1/1
f 40/4/1 38/4/1 37/4/1
f 41/4/1 38/4/1 40/4/1
f 44/2/1 40/2/1 39/2/1
f 45/2/1 42/2/1 41/2/1
f 48/2/1 44/2/1 43/2/1
f 49/2/1 40/2/1 44/2/1
f 49/2/1 44/2/1 48/2/1
f 50/4/1 41/4/1 40/4/1
f 50/2/1 40/2/1 49/2/1
f 51/2/1 46/2/1 45/2/1
f 51/4/1 41/4/1 50/4/1
f 51/2/1 45/2/1 41/2/1
f 52/2/1 46/2/1 51/2/1
f 53/2/1 46/2/1 52/2/1
f 56/2/1 49/2/1 48/2/1
f 56/2/1 48/2/1 47/2/1
f 57/2/1 54/2/1 53/2/1
f 57/2/1 53/2/1 52/2/1
f 59/2/1 56/2/1 55/2/1
f 60/2/1 49/2/1 56/2/1
f 60/2/1 56/2/1 59/2/1
f 61/2/1 58/2/1 57/2/1
f 61/2/1 57/2/1 52/2/1
f 62/2/1 58/2/1 61/2/1
f 63/2/1 49/2/1 60/2/1
f 64/2/1 49/2/1 63/2/1
f 65/3/1 50/3/1 49/3/1
f 65/2/1 49/2/1 64/2/1
f 65/3/1 51/3/1 50/3/1
f 65/3/1 52/3/1 51/3/1
f 66/2/1 61/2/1 52/2/1
f 66/3/1 52/3/1 65/3/1
f 67/2/1 61/2/1 66/2/1
f 68/2/1 61/2/1 67/2/1
f 69/2/1 65/2/1 64/2/1
f 69/2/1 67/2/1 66/2/1
f 69/2/1 66/2/1 65/2/1
f 70/2/1 67/2/1 69/2/1
f 71/2/1 67/2/1 70/2/1
f 72/2/1 67/2/1 71/2/1
f 73/2/1 71/2/1 70/2/1
f 74/2/1 71/2/1 73/2/1
f 75/2/1 71/2/1 74/2/1
f 76/2/1 71/2/1 75/2/1
f 77/2/1 75/2/1 74/2/1
f 78/2/1 75/2/1 77/2/1
f 79/4/2 80/4/2 82/4/2
f 82/4/2 80/4/2 83/4/2
f 81/2/2 82/2/2 86/2/2
f 83/2/2 84/2/2 87/2/2
f 85/2/2 86/2/2 90/2/2
f 86/2/2 82/2/2 91/2/2
f 90/2/2 86/2/2 91/2/2
f 82/4/2 83/4/2 92/4/2
f 91/2/2 82/2/2 92/2/2
f 87/2/2 88/2/2 93/2/2
f 92/4/2 83/4/2 93/4/2
f 83/2/2 87/2/2 93/2/2
f 93/2/2 88/2/2 94/2/2
f 94/2/2 88/2/2 95/2/2
f 90/2/2 91/2/2 98/2/2
f 89/2/2 90/2/2 98/2/2
f 95/2/2 96/2/2 99/2/2
f 94/2/2 95/2/2 99/2/2
f 97/2/2 98/2/2 101/2/2
f 98/2/2 91/2/2 102/2/2
f 101/2/2 98/2/2 102/2/2
f 99/2/2 100/2/2 103/2/2
f 94/2/2 99/2/2 103/2/2
f 103/2/2 100/2/2 104/2/2
f 102/2/2 91/2/2 105/2/2
f 105/2/2 91/2/2 106/2/2
f 91/3/2 92/3/2 107/3/2
f 106/2/2 91/2/2 107/2/2
f 92/3/2 93/3/2 107/3/2
f 93/3/2 94/3/2 107/3/2
f 94/2/2 103/2/2 108/2/2
f 107/3/2 94/3/2 108/3/2
f 108/2/2 103/2/2 109/2/2
f 109/2/2 103/2/2 110/2/2
f 106/2/2 107/2/2 111/2/2
f 108/2/2 109/2/2 111/2/2
f 107/2/2 108/2/2 111/2/2
f 111/2/2 109/2/2 112/2/2
f 112/2/2 109/2/2 113/2/2
f 113/2/2 109/2/2 114/2/2
f 112/2/2 113/2/2 115/2/2
f 115/2/2 113/2/2 116/2/2
f 116/2/2 113/2/2 117/2/2
f 117/2/2 113/2/2 118/2/2
f 116/2/2 117/2/2 119/2/2
f 119/2/2 117/2/2 120/2/2
f 121/1/2 122/1/2 123/1/2
f 123/1/2 122/1/2 124/1/2
f 125/1/2 126/1/2 127/1/2
f 127/1/2 126/1/2 128/1/2
f 129/1/2 130/1/2 131/1/2
f 131/1/2 130/1/2 132/1/2
f 133/1/2 134/1/2 135/1/2
f 135/1/2 134/1/2 136/1/2
f 137/1/2 138/1/2 139/1/2
f 139/1/2 138/1/2 140/1/2
f 141/1/2 142/1/2 143/1/2
f 143/1/2 142/1/2 144/1/2
f 145/1/2 146/1/2 147/1/2
f 147/1/2 146/1/2 148/1/2
f 149/1/2 150/1/2 151/1/2
f 151/1/2 150/1/2 152/1/2
f 153/1/2 154/1/2 155/1/2
f 155/1/2 154/1/2 156/1/2
f 159/1/3 158/1/3 157/1/3
f 160/1/3 158/1/3 159/1/3
f 163/1/3 162/1/3 161/1/3
f 164/1/3 162/1/3 163/1/3
f 167/1/3 166/1/3 165/1/3
f 168/1/3 166/1/3 167/1/3
f 171/1/3 170/1/3 169/1/3
f 172/1/3 170/1/3 171/1/3
f 175/1/3 174/1/3 173/1/3
f 176/1/3 174/1/3 175/1/3
f 179/1/3 178/1/3 177/1/3
f 180/1/3 178/1/3 179/1/3
f 183/1/3 182/1/3 181/1/3
f 184/1/3 182/1/3 183/1/3
f 187/1/3 186/1/3 185/1/3
f 188/1/3 186/1/3 187/1/3
f 191/2/3 190/2/3 189/2/3
f 192/2/3 190/2/3 191/2/3
f 199/2/3 196/2/3 195/2/3
f 200/2/3 196/2/3 199/2/3
f 201/2/3 198/2/3 197/2/3
f 202/2/3 198/2/3 201/2/3
f 203/1/3 194/1/3 193/1/3
f 204/1/3 194/1/3 203/1/3
f 209/2/3 206/2/3 205/2/3
f 210/2/3 206/2/3 209/2/3
f 211/2/3 208/2/3 207/2/3
f 212/2/3 208/2/3 211/2/3
f 217/2/3 214/2/3 213/2/3
f 218/2/3 214/2/3 217/2/3
f 219/2/3 216/2/3 215/2/3
f 220/2/3 216/2/3 219/2/3
f 225/4/3 222/4/3 221/4/3
f 226/4/3 222/4/3 225/4/3
f 227/2/3 224/2/3 223/2/3
f 228/2/3 224/2/3 227/2/3
f 229/4/4 230/4/4 233/4/4
f 233/4/4 230/4/4 234/4/4
f 231/2/4 232/2/4 235/2/4
f 235/2/4 232/2/4 236/2/4
f 237/2/4 238/2/4 241/2/4
f 241/2/4 238/2/4 242/2/4
f 239/2/4 240/2/4 243/2/4
f 243/2/4 240/2/4 244/2/4
f 245/2/4 246/2/4 249/2/4
f 249/2/4 246/2/4 250/2/4
f 247/2/4 248/2/4 251/2/4
f 251/2/4 248/2/4 252/2/4
f 255/2/4 256/2/4 259/2/4
f 259/2/4 256/2/4 260/2/4
f 257/2/4 258/2/4 261/2/4
f 261/2/4 258/2/4 262/2/4
f 253/1/4 254/1/4 263/1/4
f 263/1/4 254/1/4 264/1/4
f 265/2/4 266/2/4 267/2/4
f 267/2/4 266/2/4 268/2/4
f 269/1/4 270/1/4 271/1/4
f 271/1/4 270/1/4 272/1/4
f 273/1/4 274/1/4 275/1/4
f 275/1/4 274/1/4 276/1/4
f 277/1/4 278/1/4 279/1/4
f 279/1/4 278/1/4 280/1/4
f 281/1/4 282/1/4 283/1/4
f 283/1/4 282/1/4 284/1/4
f 285/1/4 286/1/4 287/1/4
f 287/1/4 286/1/4 288/1/4
f 289/1/4 290/1/4 291/1/4
f 291/1/4 290/1/4 292/1/4
f 293/1/4 294/1/4 295/1/4
f 295/1/4 294/1/4 296/1/4
f 297/1/4 298/1/4 299/1/4
f 299/1/4 298/1/4 300/1/4
f 303/1/5 302/1/5 301/1/5
f 304/1/5 302/1/5 303/1/5
f 307/2/5 306/2/5 305/2/5
f 308/2/5 306/2/5 307/2/5
f 311/2/5 310/2/5 309/2/5
f 312/2/5 310/2/5 311/2/5
f 315/2/5 314/2/5 313/2/5
f 316/2/5 314/2/5 315/2/5
f 319/2/5 318/2/5 317/2/5
f 320/2/5 318/2/5 319/2/5
f 323/2/5 322/2/5 321/2/5
f 324/2/5 322/2/5 323/2/5
f 327/2/5 326/2/5 325/2/5
f 328/2/5 326/2/5 327/2/5
f 331/2/5 330/2/5 329/2/5
f 332/2/5 330/2/5 331/2/5
f 335/2/5 334/2/5 333/2/5
f 336/2/5 334/2/5 335/2/5
f 337/1/6 338/1/6 339/1/6
f 339/1/6 338/1/6 340/1/6
f 337/1/6 339/1/6 341/1/6
f 340/1/6 338/1/6 342/1/6
f 337/1/6 341/1/6 343/1/6
f 341/1/6 342/1/6 343/1/6
f 342/1/6 338/1/6 344/1/6
f 343/1/6 342/1/6 344/1/6
f 345/1/6 346/1/6 347/1/6
f 347/1/6 346/1/6 348/1/6
f 345/1/6 347/1/6 349/1/6
f 348/1/6 346/1/6 350/1/6
f 345/1/6 349/1/6 351/1/6
f 349/1/6 350/1/6 351/1/6
f 350/1/6 346/1/6 352/1/6
f 351/1/6 350/1/6 352/1/6
f 353/1/6 354/1/6 355/1/6
f 355/1/6 354/1/6 356/1/6
f 353/1/6 355/1/6 357/1/6
f 356/1/6 354/1/6 358/1/6
f 353/1/6 357/1/6 359/1/6
f 357/1/6 358/1/6 359/1/6
f 358/1/6 354/1/6 360/1/6
f 359/1/6 358/1/6 360/1/6
f 361/1/6 362/1/6 363/1/6
f 363/1/6 362/1/6 364/1/6
f 361/1/6 363/1/6 365/1/6
f 364/1/6 362/1/6 366/1/6
f 361/1/6 365/1/6 367/1/6
f 365/1/6 366/1/6 367/1/6
f 366/1/6 362/1/6 368/1/6
f 367/1/6 366/1/6 368/1/6
f 369/1/6 370/1/6 371/1/6
f 371/1/6 370/1/6 372/1/6
f 369/1/6 371/1/6 373/1/6
f 372/1/6 370/1/6 374/1/6
f 369/1/6 373/1/6 375/1/6
f 373/1/6 374/1/6 375/1/6
f 374/1/6 370/1/6 376/1/6
f 375/1/6 374/1/6 376/1/6
f 377/1/6 378/1/6 379/1/6
f 379/1/6 378/1/6 380/1/6
f 377/1/6 379/1/6 381/1/6
f 380/1/6 378/1/6 382/1/6
f 377/1/6 381/1/6 383/1/6
f 381/1/6 382/1/6 383/1/6
f 382/1/6 378/1/6 384/1/6
f 383/1/6 382/1/6 384/1/6
f 385/1/6 386/1/6 387/1/6
f 387/1/6 386/1/6 388/1/6
f 385/1/6 387/1/6 389/1/6
f 388/1/6 386/1/6 390/1/6
f 385/1/6 389/1/6 391/1/6
f 389/1/6 390/1/6 391/1/6
f 390/1/6 386/1/6 392/1/6
f 391/1/6 390/1/6 392/1/6
f 393/1/6 394/1/6 395/1/6
f 395/1/6 394/1/6 396/1/6
f 393/1/6 395/1/6 397/1/6
f 396/1/6 394/1/6 398/1/6
f 393/1/6 397/1/6 399/1/6
f 397/1/6 398/1/6 399/1/6
f 398/1/6 394/1/6 400/1/6
f 399/1/6 398/1/6 400/1/6
f 401/1/6 402/1/6 403/1/6
f 403/1/6 402/1/6 404/1/6
f 401/1/6 403/1/6 405/1/6
f 404/1/6 402/1/6 406/1/6
f 401/1/6 405/1/6 407/1/6
f 405/1/6 406/1/6 407/1/6
f 406/1/6 402/1/6 408/1/6
f 407/1/6 406/1/6 408/1/6
f 409/2/6 410/2/6 411/2/6
f 411/2/6 410/2/6 412/2/6
f 413/2/6 414/2/6 415/2/6
f 415/2/6 414/2/6 416/2/6
f 417/2/6 418/2/6 419/2/6
f 419/2/6 418/2/6 420/2/6
f 421/2/6 422/2/6 423/2/6
f 423/2/6 422/2/6 424/2/6
f 425/2/6 426/2/6 427/2/6
f 427/2/6 426/2/6 428/2/6
f 429/2/6 430/2/6 431/2/6
f 431/2/6 430/2/6 432/2/6
f 433/2/6 434/2/6 435/2/6
f 435/2/6 434/2/6 436/2/6
f 437/2/6 438/2/6 439/2/6
f 439/2/6 438/2/6 440/2/6
f 441/2/6 442/2/6 443/2/6
f 443/2/6 442/2/6 444/2/6
