# MagicaVoxel @ Ephtracy

# material
mtllib handenemy.mtl
usemtl palette

# normals
vn -1 0 0
vn 1 0 0
vn 0 0 1
vn 0 0 -1
vn 0 -1 0
vn 0 1 0

# texcoords
vt 0.0253906 0.5
vt 0.0332031 0.5

# verts
v -8 2 3
v -8 2 -3
v -8 3 3
v -8 3 -3
v -7 2 5
v -7 2 3
v -7 2 -3
v -7 2 -5
v -7 3 5
v -7 3 3
v -7 3 -3
v -7 3 -5
v -6 2 6
v -6 2 5
v -6 2 2
v -6 2 -2
v -6 2 -5
v -6 2 -6
v -6 3 6
v -6 3 5
v -6 3 2
v -6 3 -2
v -6 3 -5
v -6 3 -6
v -5 2 7
v -5 2 6
v -5 2 4
v -5 2 2
v -5 2 -2
v -5 2 -4
v -5 2 -6
v -5 2 -7
v -5 3 7
v -5 3 6
v -5 3 4
v -5 3 2
v -5 3 -2
v -5 3 -4
v -5 3 -6
v -5 3 -7
v -4 2 5
v -4 2 4
v -4 2 -4
v -4 2 -5
v -4 3 5
v -4 3 4
v -4 3 -4
v -4 3 -5
v -3 1 1
v -3 1 -1
v -3 2 8
v -3 2 7
v -3 2 1
v -3 2 -1
v -3 2 -7
v -3 2 -8
v -3 3 8
v -3 3 7
v -3 3 1
v -3 3 -1
v -3 3 -7
v -3 3 -8
v -3 4 1
v -3 4 -1
v -2 0 1
v -2 0 -1
v -2 1 2
v -2 1 1
v -2 1 -1
v -2 1 -2
v -2 2 6
v -2 2 5
v -2 2 2
v -2 2 1
v -2 2 -1
v -2 2 -2
v -2 2 -5
v -2 2 -6
v -2 3 6
v -2 3 5
v -2 3 2
v -2 3 1
v -2 3 -1
v -2 3 -2
v -2 3 -5
v -2 3 -6
v -2 4 2
v -2 4 1
v -2 4 -1
v -2 4 -2
v -2 5 1
v -2 5 -1
v -1 0 2
v -1 0 1
v -1 0 -1
v -1 0 -2
v -1 1 3
v -1 1 2
v -1 1 1
v -1 1 -1
v -1 1 -2
v -1 1 -3
v -1 2 3
v -1 2 2
v -1 2 -2
v -1 2 -3
v -1 3 3
v -1 3 2
v -1 3 -2
v -1 3 -3
v -1 4 3
v -1 4 2
v -1 4 1
v -1 4 -1
v -1 4 -2
v -1 4 -3
v -1 5 2
v -1 5 1
v -1 5 -1
v -1 5 -2
v 1 0 1
v 1 0 -1
v 1 5 1
v 1 5 -1
v 3 2 7
v 3 2 6
v 3 2 -6
v 3 2 -7
v 3 3 7
v 3 3 6
v 3 3 -6
v 3 3 -7
v 5 2 6
v 5 2 5
v 5 2 -5
v 5 2 -6
v 5 3 6
v 5 3 5
v 5 3 -5
v 5 3 -6
v 6 2 5
v 6 2 3
v 6 2 -3
v 6 2 -5
v 6 3 5
v 6 3 3
v 6 3 -3
v 6 3 -5
v 7 2 3
v 7 2 -3
v 7 3 3
v 7 3 -3
v -7 2 3
v -7 2 -3
v -7 3 3
v -7 3 -3
v -6 2 5
v -6 2 3
v -6 2 -3
v -6 2 -5
v -6 3 5
v -6 3 3
v -6 3 -3
v -6 3 -5
v -5 2 6
v -5 2 5
v -5 2 -5
v -5 2 -6
v -5 3 6
v -5 3 5
v -5 3 -5
v -5 3 -6
v -3 2 7
v -3 2 6
v -3 2 -6
v -3 2 -7
v -3 3 7
v -3 3 6
v -3 3 -6
v -3 3 -7
v -1 0 1
v -1 0 -1
v -1 5 1
v -1 5 -1
v 1 0 2
v 1 0 1
v 1 0 -1
v 1 0 -2
v 1 1 3
v 1 1 2
v 1 1 1
v 1 1 -1
v 1 1 -2
v 1 1 -3
v 1 2 3
v 1 2 2
v 1 2 -2
v 1 2 -3
v 1 3 3
v 1 3 2
v 1 3 -2
v 1 3 -3
v 1 4 3
v 1 4 2
v 1 4 1
v 1 4 -1
v 1 4 -2
v 1 4 -3
v 1 5 2
v 1 5 1
v 1 5 -1
v 1 5 -2
v 2 0 1
v 2 0 -1
v 2 1 2
v 2 1 1
v 2 1 -1
v 2 1 -2
v 2 2 6
v 2 2 5
v 2 2 2
v 2 2 1
v 2 2 -1
v 2 2 -2
v 2 2 -5
v 2 2 -6
v 2 3 6
v 2 3 5
v 2 3 2
v 2 3 1
v 2 3 -1
v 2 3 -2
v 2 3 -5
v 2 3 -6
v 2 4 2
v 2 4 1
v 2 4 -1
v 2 4 -2
v 2 5 1
v 2 5 -1
v 3 1 1
v 3 1 -1
v 3 2 8
v 3 2 7
v 3 2 1
v 3 2 -1
v 3 2 -7
v 3 2 -8
v 3 3 8
v 3 3 7
v 3 3 1
v 3 3 -1
v 3 3 -7
v 3 3 -8
v 3 4 1
v 3 4 -1
v 4 2 5
v 4 2 4
v 4 2 -4
v 4 2 -5
v 4 3 5
v 4 3 4
v 4 3 -4
v 4 3 -5
v 5 2 7
v 5 2 6
v 5 2 4
v 5 2 2
v 5 2 -2
v 5 2 -4
v 5 2 -6
v 5 2 -7
v 5 3 7
v 5 3 6
v 5 3 4
v 5 3 2
v 5 3 -2
v 5 3 -4
v 5 3 -6
v 5 3 -7
v 6 2 6
v 6 2 5
v 6 2 2
v 6 2 -2
v 6 2 -5
v 6 2 -6
v 6 3 6
v 6 3 5
v 6 3 2
v 6 3 -2
v 6 3 -5
v 6 3 -6
v 7 2 5
v 7 2 3
v 7 2 -3
v 7 2 -5
v 7 3 5
v 7 3 3
v 7 3 -3
v 7 3 -5
v 8 2 3
v 8 2 -3
v 8 3 3
v 8 3 -3
v -3 2 8
v -3 3 8
v 3 2 8
v 3 3 8
v -5 2 7
v -5 3 7
v -3 2 7
v -3 3 7
v 3 2 7
v 3 3 7
v 5 2 7
v 5 3 7
v -6 2 6
v -6 3 6
v -5 2 6
v -5 3 6
v -2 2 6
v -2 3 6
v 2 2 6
v 2 3 6
v 5 2 6
v 5 3 6
v 6 2 6
v 6 3 6
v -7 2 5
v -7 3 5
v -6 2 5
v -6 3 5
v -4 2 5
v -4 3 5
v -2 2 5
v -2 3 5
v 2 2 5
v 2 3 5
v 4 2 5
v 4 3 5
v 6 2 5
v 6 3 5
v 7 2 5
v 7 3 5
v -5 2 4
v -5 3 4
v -4 2 4
v -4 3 4
v 4 2 4
v 4 3 4
v 5 2 4
v 5 3 4
v -8 2 3
v -8 3 3
v -7 2 3
v -7 3 3
v -1 1 3
v -1 2 3
v -1 3 3
v -1 4 3
v 1 1 3
v 1 2 3
v 1 3 3
v 1 4 3
v 7 2 3
v 7 3 3
v 8 2 3
v 8 3 3
v -6 2 2
v -6 3 2
v -5 2 2
v -5 3 2
v -2 1 2
v -2 2 2
v -2 3 2
v -2 4 2
v -1 0 2
v -1 1 2
v -1 2 2
v -1 3 2
v -1 4 2
v -1 5 2
v 1 0 2
v 1 1 2
v 1 2 2
v 1 3 2
v 1 4 2
v 1 5 2
v 2 1 2
v 2 2 2
v 2 3 2
v 2 4 2
v 5 2 2
v 5 3 2
v 6 2 2
v 6 3 2
v -3 1 1
v -3 2 1
v -3 3 1
v -3 4 1
v -2 0 1
v -2 1 1
v -2 2 1
v -2 3 1
v -2 4 1
v -2 5 1
v -1 0 1
v -1 1 1
v -1 4 1
v -1 5 1
v 1 0 1
v 1 1 1
v 1 4 1
v 1 5 1
v 2 0 1
v 2 1 1
v 2 2 1
v 2 3 1
v 2 4 1
v 2 5 1
v 3 1 1
v 3 2 1
v 3 3 1
v 3 4 1
v -1 0 -1
v -1 5 -1
v 1 0 -1
v 1 5 -1
v -7 2 -3
v -7 3 -3
v -6 2 -3
v -6 3 -3
v 6 2 -3
v 6 3 -3
v 7 2 -3
v 7 3 -3
v -6 2 -5
v -6 3 -5
v -5 2 -5
v -5 3 -5
v 5 2 -5
v 5 3 -5
v 6 2 -5
v 6 3 -5
v -5 2 -6
v -5 3 -6
v -3 2 -6
v -3 3 -6
v 3 2 -6
v 3 3 -6
v 5 2 -6
v 5 3 -6
v -3 2 -7
v -3 3 -7
v 3 2 -7
v 3 3 -7
v -3 2 7
v -3 3 7
v 3 2 7
v 3 3 7
v -5 2 6
v -5 3 6
v -3 2 6
v -3 3 6
v 3 2 6
v 3 3 6
v 5 2 6
v 5 3 6
v -6 2 5
v -6 3 5
v -5 2 5
v -5 3 5
v 5 2 5
v 5 3 5
v 6 2 5
v 6 3 5
v -7 2 3
v -7 3 3
v -6 2 3
v -6 3 3
v 6 2 3
v 6 3 3
v 7 2 3
v 7 3 3
v -1 0 1
v -1 5 1
v 1 0 1
v 1 5 1
v -3 1 -1
v -3 2 -1
v -3 3 -1
v -3 4 -1
v -2 0 -1
v -2 1 -1
v -2 2 -1
v -2 3 -1
v -2 4 -1
v -2 5 -1
v -1 0 -1
v -1 1 -1
v -1 4 -1
v -1 5 -1
v 1 0 -1
v 1 1 -1
v 1 4 -1
v 1 5 -1
v 2 0 -1
v 2 1 -1
v 2 2 -1
v 2 3 -1
v 2 4 -1
v 2 5 -1
v 3 1 -1
v 3 2 -1
v 3 3 -1
v 3 4 -1
v -6 2 -2
v -6 3 -2
v -5 2 -2
v -5 3 -2
v -2 1 -2
v -2 2 -2
v -2 3 -2
v -2 4 -2
v -1 0 -2
v -1 1 -2
v -1 2 -2
v -1 3 -2
v -1 4 -2
v -1 5 -2
v 1 0 -2
v 1 1 -2
v 1 2 -2
v 1 3 -2
v 1 4 -2
v 1 5 -2
v 2 1 -2
v 2 2 -2
v 2 3 -2
v 2 4 -2
v 5 2 -2
v 5 3 -2
v 6 2 -2
v 6 3 -2
v -8 2 -3
v -8 3 -3
v -7 2 -3
v -7 3 -3
v -1 1 -3
v -1 2 -3
v -1 3 -3
v -1 4 -3
v 1 1 -3
v 1 2 -3
v 1 3 -3
v 1 4 -3
v 7 2 -3
v 7 3 -3
v 8 2 -3
v 8 3 -3
v -5 2 -4
v -5 3 -4
v -4 2 -4
v -4 3 -4
v 4 2 -4
v 4 3 -4
v 5 2 -4
v 5 3 -4
v -7 2 -5
v -7 3 -5
v -6 2 -5
v -6 3 -5
v -4 2 -5
v -4 3 -5
v -2 2 -5
v -2 3 -5
v 2 2 -5
v 2 3 -5
v 4 2 -5
v 4 3 -5
v 6 2 -5
v 6 3 -5
v 7 2 -5
v 7 3 -5
v -6 2 -6
v -6 3 -6
v -5 2 -6
v -5 3 -6
v -2 2 -6
v -2 3 -6
v 2 2 -6
v 2 3 -6
v 5 2 -6
v 5 3 -6
v 6 2 -6
v 6 3 -6
v -5 2 -7
v -5 3 -7
v -3 2 -7
v -3 3 -7
v 3 2 -7
v 3 3 -7
v 5 2 -7
v 5 3 -7
v -3 2 -8
v -3 3 -8
v 3 2 -8
v 3 3 -8
v -1 0 2
v 1 0 2
v -2 0 1
v -1 0 1
v 1 0 1
v 2 0 1
v -2 0 -1
v -1 0 -1
v 1 0 -1
v 2 0 -1
v -1 0 -2
v 1 0 -2
v -1 1 3
v 1 1 3
v -2 1 2
v -1 1 2
v 1 1 2
v 2 1 2
v -3 1 1
v -2 1 1
v -1 1 1
v 1 1 1
v 2 1 1
v 3 1 1
v -3 1 -1
v -2 1 -1
v -1 1 -1
v 1 1 -1
v 2 1 -1
v 3 1 -1
v -2 1 -2
v -1 1 -2
v 1 1 -2
v 2 1 -2
v -1 1 -3
v 1 1 -3
v -3 2 8
v 3 2 8
v -5 2 7
v -3 2 7
v 3 2 7
v 5 2 7
v -6 2 6
v -5 2 6
v -3 2 6
v -2 2 6
v 2 2 6
v 3 2 6
v 5 2 6
v 6 2 6
v -7 2 5
v -6 2 5
v -5 2 5
v -4 2 5
v -2 2 5
v 2 2 5
v 4 2 5
v 5 2 5
v 6 2 5
v 7 2 5
v -5 2 4
v -4 2 4
v 4 2 4
v 5 2 4
v -8 2 3
v -7 2 3
v -6 2 3
v -1 2 3
v 1 2 3
v 6 2 3
v 7 2 3
v 8 2 3
v -6 2 2
v -5 2 2
v -2 2 2
v -1 2 2
v 1 2 2
v 2 2 2
v 5 2 2
v 6 2 2
v -3 2 1
v -2 2 1
v 2 2 1
v 3 2 1
v -3 2 -1
v -2 2 -1
v 2 2 -1
v 3 2 -1
v -6 2 -2
v -5 2 -2
v -2 2 -2
v -1 2 -2
v 1 2 -2
v 2 2 -2
v 5 2 -2
v 6 2 -2
v -8 2 -3
v -7 2 -3
v -6 2 -3
v -1 2 -3
v 1 2 -3
v 6 2 -3
v 7 2 -3
v 8 2 -3
v -5 2 -4
v -4 2 -4
v 4 2 -4
v 5 2 -4
v -7 2 -5
v -6 2 -5
v -5 2 -5
v -4 2 -5
v -2 2 -5
v 2 2 -5
v 4 2 -5
v 5 2 -5
v 6 2 -5
v 7 2 -5
v -6 2 -6
v -5 2 -6
v -3 2 -6
v -2 2 -6
v 2 2 -6
v 3 2 -6
v 5 2 -6
v 6 2 -6
v -5 2 -7
v -3 2 -7
v 3 2 -7
v 5 2 -7
v -3 2 -8
v 3 2 -8
v -3 3 8
v 3 3 8
v -5 3 7
v -3 3 7
v 3 3 7
v 5 3 7
v -6 3 6
v -5 3 6
v -3 3 6
v -2 3 6
v 2 3 6
v 3 3 6
v 5 3 6
v 6 3 6
v -7 3 5
v -6 3 5
v -5 3 5
v -4 3 5
v -2 3 5
v 2 3 5
v 4 3 5
v 5 3 5
v 6 3 5
v 7 3 5
v -5 3 4
v -4 3 4
v 4 3 4
v 5 3 4
v -8 3 3
v -7 3 3
v -6 3 3
v -1 3 3
v 1 3 3
v 6 3 3
v 7 3 3
v 8 3 3
v -6 3 2
v -5 3 2
v -2 3 2
v -1 3 2
v 1 3 2
v 2 3 2
v 5 3 2
v 6 3 2
v -3 3 1
v -2 3 1
v 2 3 1
v 3 3 1
v -3 3 -1
v -2 3 -1
v 2 3 -1
v 3 3 -1
v -6 3 -2
v -5 3 -2
v -2 3 -2
v -1 3 -2
v 1 3 -2
v 2 3 -2
v 5 3 -2
v 6 3 -2
v -8 3 -3
v -7 3 -3
v -6 3 -3
v -1 3 -3
v 1 3 -3
v 6 3 -3
v 7 3 -3
v 8 3 -3
v -5 3 -4
v -4 3 -4
v 4 3 -4
v 5 3 -4
v -7 3 -5
v -6 3 -5
v -5 3 -5
v -4 3 -5
v -2 3 -5
v 2 3 -5
v 4 3 -5
v 5 3 -5
v 6 3 -5
v 7 3 -5
v -6 3 -6
v -5 3 -6
v -3 3 -6
v -2 3 -6
v 2 3 -6
v 3 3 -6
v 5 3 -6
v 6 3 -6
v -5 3 -7
v -3 3 -7
v 3 3 -7
v 5 3 -7
v -3 3 -8
v 3 3 -8
v -1 4 3
v 1 4 3
v -2 4 2
v -1 4 2
v 1 4 2
v 2 4 2
v -3 4 1
v -2 4 1
v -1 4 1
v 1 4 1
v 2 4 1
v 3 4 1
v -3 4 -1
v -2 4 -1
v -1 4 -1
v 1 4 -1
v 2 4 -1
v 3 4 -1
v -2 4 -2
v -1 4 -2
v 1 4 -2
v 2 4 -2
v -1 4 -3
v 1 4 -3
v -1 5 2
v 1 5 2
v -2 5 1
v -1 5 1
v 1 5 1
v 2 5 1
v -2 5 -1
v -1 5 -1
v 1 5 -1
v 2 5 -1
v -1 5 -2
v 1 5 -2

# faces
f 3/2/1 2/2/1 1/2/1
f 4/2/1 2/2/1 3/2/1
f 9/2/1 6/2/1 5/2/1
f 10/2/1 6/2/1 9/2/1
f 11/2/1 8/2/1 7/2/1
f 12/2/1 8/2/1 11/2/1
f 19/2/1 14/2/1 13/2/1
f 20/2/1 14/2/1 19/2/1
f 21/2/1 16/2/1 15/2/1
f 22/2/1 16/2/1 21/2/1
f 23/2/1 18/2/1 17/2/1
f 24/2/1 18/2/1 23/2/1
f 33/2/1 26/2/1 25/2/1
f 34/2/1 26/2/1 33/2/1
f 35/2/1 28/2/1 27/2/1
f 36/2/1 28/2/1 35/2/1
f 37/2/1 30/2/1 29/2/1
f 38/2/1 30/2/1 37/2/1
f 39/2/1 32/2/1 31/2/1
f 40/2/1 32/2/1 39/2/1
f 45/2/1 42/2/1 41/2/1
f 46/2/1 42/2/1 45/2/1
f 47/2/1 44/2/1 43/2/1
f 48/2/1 44/2/1 47/2/1
f 53/1/1 50/1/1 49/1/1
f 54/1/1 50/1/1 53/1/1
f 57/2/1 52/2/1 51/2/1
f 58/2/1 52/2/1 57/2/1
f 61/2/1 56/2/1 55/2/1
f 62/2/1 56/2/1 61/2/1
f 63/1/1 60/1/1 59/1/1
f 64/1/1 60/1/1 63/1/1
f 68/1/1 66/1/1 65/1/1
f 69/1/1 66/1/1 68/1/1
f 73/1/1 68/1/1 67/1/1
f 74/1/1 68/1/1 73/1/1
f 75/1/1 70/1/1 69/1/1
f 76/1/1 70/1/1 75/1/1
f 79/2/1 72/2/1 71/2/1
f 80/2/1 72/2/1 79/2/1
f 85/2/1 78/2/1 77/2/1
f 86/2/1 78/2/1 85/2/1
f 87/1/1 82/1/1 81/1/1
f 88/1/1 82/1/1 87/1/1
f 89/1/1 84/1/1 83/1/1
f 90/1/1 84/1/1 89/1/1
f 91/1/1 89/1/1 88/1/1
f 92/1/1 89/1/1 91/1/1
f 98/1/1 94/1/1 93/1/1
f 99/1/1 94/1/1 98/1/1
f 100/1/1 96/1/1 95/1/1
f 101/1/1 96/1/1 100/1/1
f 103/1/1 98/1/1 97/1/1
f 104/1/1 98/1/1 103/1/1
f 105/1/1 102/1/1 101/1/1
f 106/1/1 102/1/1 105/1/1
f 111/1/1 108/1/1 107/1/1
f 112/1/1 108/1/1 111/1/1
f 115/1/1 110/1/1 109/1/1
f 116/1/1 110/1/1 115/1/1
f 117/1/1 113/1/1 112/1/1
f 118/1/1 113/1/1 117/1/1
f 119/1/1 115/1/1 114/1/1
f 120/1/1 115/1/1 119/1/1
f 123/1/1 122/1/1 121/1/1
f 124/1/1 122/1/1 123/1/1
f 129/2/1 126/2/1 125/2/1
f 130/2/1 126/2/1 129/2/1
f 131/2/1 128/2/1 127/2/1
f 132/2/1 128/2/1 131/2/1
f 137/2/1 134/2/1 133/2/1
f 138/2/1 134/2/1 137/2/1
f 139/2/1 136/2/1 135/2/1
f 140/2/1 136/2/1 139/2/1
f 145/2/1 142/2/1 141/2/1
f 146/2/1 142/2/1 145/2/1
f 147/2/1 144/2/1 143/2/1
f 148/2/1 144/2/1 147/2/1
f 151/2/1 150/2/1 149/2/1
f 152/2/1 150/2/1 151/2/1
f 153/2/2 154/2/2 155/2/2
f 155/2/2 154/2/2 156/2/2
f 157/2/2 158/2/2 161/2/2
f 161/2/2 158/2/2 162/2/2
f 159/2/2 160/2/2 163/2/2
f 163/2/2 160/2/2 164/2/2
f 165/2/2 166/2/2 169/2/2
f 169/2/2 166/2/2 170/2/2
f 167/2/2 168/2/2 171/2/2
f 171/2/2 168/2/2 172/2/2
f 173/2/2 174/2/2 177/2/2
f 177/2/2 174/2/2 178/2/2
f 175/2/2 176/2/2 179/2/2
f 179/2/2 176/2/2 180/2/2
f 181/1/2 182/1/2 183/1/2
f 183/1/2 182/1/2 184/1/2
f 185/1/2 186/1/2 190/1/2
f 190/1/2 186/1/2 191/1/2
f 187/1/2 188/1/2 192/1/2
f 192/1/2 188/1/2 193/1/2
f 189/1/2 190/1/2 195/1/2
f 195/1/2 190/1/2 196/1/2
f 193/1/2 194/1/2 197/1/2
f 197/1/2 194/1/2 198/1/2
f 199/1/2 200/1/2 203/1/2
f 203/1/2 200/1/2 204/1/2
f 201/1/2 202/1/2 207/1/2
f 207/1/2 202/1/2 208/1/2
f 204/1/2 205/1/2 209/1/2
f 209/1/2 205/1/2 210/1/2
f 206/1/2 207/1/2 211/1/2
f 211/1/2 207/1/2 212/1/2
f 213/1/2 214/1/2 216/1/2
f 216/1/2 214/1/2 217/1/2
f 215/1/2 216/1/2 221/1/2
f 221/1/2 216/1/2 222/1/2
f 217/1/2 218/1/2 223/1/2
f 223/1/2 218/1/2 224/1/2
f 219/2/2 220/2/2 227/2/2
f 227/2/2 220/2/2 228/2/2
f 225/2/2 226/2/2 233/2/2
f 233/2/2 226/2/2 234/2/2
f 229/1/2 230/1/2 235/1/2
f 235/1/2 230/1/2 236/1/2
f 231/1/2 232/1/2 237/1/2
f 237/1/2 232/1/2 238/1/2
f 236/1/2 237/1/2 239/1/2
f 239/1/2 237/1/2 240/1/2
f 241/1/2 242/1/2 245/1/2
f 245/1/2 242/1/2 246/1/2
f 243/2/2 244/2/2 249/2/2
f 249/2/2 244/2/2 250/2/2
f 247/2/2 248/2/2 253/2/2
f 253/2/2 248/2/2 254/2/2
f 251/1/2 252/1/2 255/1/2
f 255/1/2 252/1/2 256/1/2
f 257/2/2 258/2/2 261/2/2
f 261/2/2 258/2/2 262/2/2
f 259/2/2 260/2/2 263/2/2
f 263/2/2 260/2/2 264/2/2
f 265/2/2 266/2/2 273/2/2
f 273/2/2 266/2/2 274/2/2
f 267/2/2 268/2/2 275/2/2
f 275/2/2 268/2/2 276/2/2
f 269/2/2 270/2/2 277/2/2
f 277/2/2 270/2/2 278/2/2
f 271/2/2 272/2/2 279/2/2
f 279/2/2 272/2/2 280/2/2
f 281/2/2 282/2/2 287/2/2
f 287/2/2 282/2/2 288/2/2
f 283/2/2 284/2/2 289/2/2
f 289/2/2 284/2/2 290/2/2
f 285/2/2 286/2/2 291/2/2
f 291/2/2 286/2/2 292/2/2
f 293/2/2 294/2/2 297/2/2
f 297/2/2 294/2/2 298/2/2
f 295/2/2 296/2/2 299/2/2
f 299/2/2 296/2/2 300/2/2
f 301/2/2 302/2/2 303/2/2
f 303/2/2 302/2/2 304/2/2
f 307/2/3 306/2/3 305/2/3
f 308/2/3 306/2/3 307/2/3
f 311/2/3 310/2/3 309/2/3
f 312/2/3 310/2/3 311/2/3
f 315/2/3 314/2/3 313/2/3
f 316/2/3 314/2/3 315/2/3
f 319/2/3 318/2/3 317/2/3
f 320/2/3 318/2/3 319/2/3
f 323/2/3 322/2/3 321/2/3
f 324/2/3 322/2/3 323/2/3
f 327/2/3 326/2/3 325/2/3
f 328/2/3 326/2/3 327/2/3
f 331/2/3 330/2/3 329/2/3
f 332/2/3 330/2/3 331/2/3
f 335/2/3 334/2/3 333/2/3
f 336/2/3 334/2/3 335/2/3
f 339/2/3 338/2/3 337/2/3
f 340/2/3 338/2/3 339/2/3
f 343/2/3 342/2/3 341/2/3
f 344/2/3 342/2/3 343/2/3
f 347/2/3 346/2/3 345/2/3
f 348/2/3 346/2/3 347/2/3
f 351/2/3 350/2/3 349/2/3
f 352/2/3 350/2/3 351/2/3
f 355/2/3 354/2/3 353/2/3
f 356/2/3 354/2/3 355/2/3
f 361/1/3 358/1/3 357/1/3
f 362/1/3 358/1/3 361/1/3
f 363/1/3 360/1/3 359/1/3
f 364/1/3 360/1/3 363/1/3
f 367/2/3 366/2/3 365/2/3
f 368/2/3 366/2/3 367/2/3
f 371/2/3 370/2/3 369/2/3
f 372/2/3 370/2/3 371/2/3
f 378/1/3 374/1/3 373/1/3
f 379/1/3 374/1/3 378/1/3
f 380/1/3 376/1/3 375/1/3
f 381/1/3 376/1/3 380/1/3
f 383/1/3 378/1/3 377/1/3
f 384/1/3 378/1/3 383/1/3
f 387/1/3 382/1/3 381/1/3
f 388/1/3 382/1/3 387/1/3
f 389/1/3 385/1/3 384/1/3
f 390/1/3 385/1/3 389/1/3
f 391/1/3 387/1/3 386/1/3
f 392/1/3 387/1/3 391/1/3
f 395/2/3 394/2/3 393/2/3
f 396/2/3 394/2/3 395/2/3
f 402/1/3 398/1/3 397/1/3
f 403/1/3 398/1/3 402/1/3
f 404/1/3 400/1/3 399/1/3
f 405/1/3 400/1/3 404/1/3
f 407/1/3 402/1/3 401/1/3
f 408/1/3 402/1/3 407/1/3
f 409/1/3 406/1/3 405/1/3
f 410/1/3 406/1/3 409/1/3
f 415/1/3 412/1/3 411/1/3
f 416/1/3 412/1/3 415/1/3
f 419/1/3 414/1/3 413/1/3
f 420/1/3 414/1/3 419/1/3
f 421/1/3 417/1/3 416/1/3
f 422/1/3 417/1/3 421/1/3
f 423/1/3 419/1/3 418/1/3
f 424/1/3 419/1/3 423/1/3
f 427/1/3 426/1/3 425/1/3
f 428/1/3 426/1/3 427/1/3
f 431/2/3 430/2/3 429/2/3
f 432/2/3 430/2/3 431/2/3
f 435/2/3 434/2/3 433/2/3
f 436/2/3 434/2/3 435/2/3
f 439/2/3 438/2/3 437/2/3
f 440/2/3 438/2/3 439/2/3
f 443/2/3 442/2/3 441/2/3
f 444/2/3 442/2/3 443/2/3
f 447/2/3 446/2/3 445/2/3
f 448/2/3 446/2/3 447/2/3
f 451/2/3 450/2/3 449/2/3
f 452/2/3 450/2/3 451/2/3
f 455/2/3 454/2/3 453/2/3
f 456/2/3 454/2/3 455/2/3
f 457/2/4 458/2/4 459/2/4
f 459/2/4 458/2/4 460/2/4
f 461/2/4 462/2/4 463/2/4
f 463/2/4 462/2/4 464/2/4
f 465/2/4 466/2/4 467/2/4
f 467/2/4 466/2/4 468/2/4
f 469/2/4 470/2/4 471/2/4
f 471/2/4 470/2/4 472/2/4
f 473/2/4 474/2/4 475/2/4
f 475/2/4 474/2/4 476/2/4
f 477/2/4 478/2/4 479/2/4
f 479/2/4 478/2/4 480/2/4
f 481/2/4 482/2/4 483/2/4
f 483/2/4 482/2/4 484/2/4
f 485/1/4 486/1/4 487/1/4
f 487/1/4 486/1/4 488/1/4
f 489/1/4 490/1/4 494/1/4
f 494/1/4 490/1/4 495/1/4
f 491/1/4 492/1/4 496/1/4
f 496/1/4 492/1/4 497/1/4
f 493/1/4 494/1/4 499/1/4
f 499/1/4 494/1/4 500/1/4
f 497/1/4 498/1/4 501/1/4
f 501/1/4 498/1/4 502/1/4
f 503/1/4 504/1/4 507/1/4
f 507/1/4 504/1/4 508/1/4
f 505/1/4 506/1/4 511/1/4
f 511/1/4 506/1/4 512/1/4
f 508/1/4 509/1/4 513/1/4
f 513/1/4 509/1/4 514/1/4
f 510/1/4 511/1/4 515/1/4
f 515/1/4 511/1/4 516/1/4
f 517/2/4 518/2/4 519/2/4
f 519/2/4 518/2/4 520/2/4
f 521/1/4 522/1/4 526/1/4
f 526/1/4 522/1/4 527/1/4
f 523/1/4 524/1/4 528/1/4
f 528/1/4 524/1/4 529/1/4
f 525/1/4 526/1/4 531/1/4
f 531/1/4 526/1/4 532/1/4
f 529/1/4 530/1/4 535/1/4
f 535/1/4 530/1/4 536/1/4
f 532/1/4 533/1/4 537/1/4
f 537/1/4 533/1/4 538/1/4
f 534/1/4 535/1/4 539/1/4
f 539/1/4 535/1/4 540/1/4
f 541/2/4 542/2/4 543/2/4
f 543/2/4 542/2/4 544/2/4
f 545/2/4 546/2/4 547/2/4
f 547/2/4 546/2/4 548/2/4
f 549/1/4 550/1/4 553/1/4
f 553/1/4 550/1/4 554/1/4
f 551/1/4 552/1/4 555/1/4
f 555/1/4 552/1/4 556/1/4
f 557/2/4 558/2/4 559/2/4
f 559/2/4 558/2/4 560/2/4
f 561/2/4 562/2/4 563/2/4
f 563/2/4 562/2/4 564/2/4
f 565/2/4 566/2/4 567/2/4
f 567/2/4 566/2/4 568/2/4
f 569/2/4 570/2/4 571/2/4
f 571/2/4 570/2/4 572/2/4
f 573/2/4 574/2/4 575/2/4
f 575/2/4 574/2/4 576/2/4
f 577/2/4 578/2/4 579/2/4
f 579/2/4 578/2/4 580/2/4
f 581/2/4 582/2/4 583/2/4
f 583/2/4 582/2/4 584/2/4
f 585/2/4 586/2/4 587/2/4
f 587/2/4 586/2/4 588/2/4
f 589/2/4 590/2/4 591/2/4
f 591/2/4 590/2/4 592/2/4
f 593/2/4 594/2/4 595/2/4
f 595/2/4 594/2/4 596/2/4
f 597/2/4 598/2/4 599/2/4
f 599/2/4 598/2/4 600/2/4
f 601/2/4 602/2/4 603/2/4
f 603/2/4 602/2/4 604/2/4
f 605/2/4 606/2/4 607/2/4
f 607/2/4 606/2/4 608/2/4
f 612/1/5 610/1/5 609/1/5
f 613/1/5 610/1/5 612/1/5
f 615/1/5 612/1/5 611/1/5
f 616/1/5 612/1/5 615/1/5
f 617/1/5 614/1/5 613/1/5
f 618/1/5 614/1/5 617/1/5
f 619/1/5 617/1/5 616/1/5
f 620/1/5 617/1/5 619/1/5
f 624/1/5 622/1/5 621/1/5
f 625/1/5 622/1/5 624/1/5
f 628/1/5 624/1/5 623/1/5
f 629/1/5 624/1/5 628/1/5
f 630/1/5 626/1/5 625/1/5
f 631/1/5 626/1/5 630/1/5
f 633/1/5 628/1/5 627/1/5
f 634/1/5 628/1/5 633/1/5
f 637/1/5 632/1/5 631/1/5
f 638/1/5 632/1/5 637/1/5
f 639/1/5 635/1/5 634/1/5
f 640/1/5 635/1/5 639/1/5
f 641/1/5 637/1/5 636/1/5
f 642/1/5 637/1/5 641/1/5
f 643/1/5 641/1/5 640/1/5
f 644/1/5 641/1/5 643/1/5
f 648/2/5 646/2/5 645/2/5
f 649/2/5 646/2/5 648/2/5
f 652/2/5 648/2/5 647/2/5
f 653/2/5 648/2/5 652/2/5
f 656/2/5 650/2/5 649/2/5
f 657/2/5 650/2/5 656/2/5
f 660/2/5 652/2/5 651/2/5
f 661/2/5 652/2/5 660/2/5
f 663/2/5 655/2/5 654/2/5
f 664/2/5 655/2/5 663/2/5
f 666/2/5 658/2/5 657/2/5
f 667/2/5 658/2/5 666/2/5
f 670/2/5 665/2/5 664/2/5
f 670/2/5 663/2/5 662/2/5
f 670/2/5 664/2/5 663/2/5
f 671/2/5 665/2/5 670/2/5
f 674/2/5 660/2/5 659/2/5
f 675/2/5 660/2/5 674/2/5
f 676/2/5 672/2/5 671/2/5
f 676/2/5 670/2/5 669/2/5
f 676/2/5 671/2/5 670/2/5
f 677/2/5 672/2/5 676/2/5
f 678/2/5 668/2/5 667/2/5
f 679/2/5 668/2/5 678/2/5
f 682/2/5 676/2/5 669/2/5
f 683/2/5 676/2/5 682/2/5
f 684/2/5 676/2/5 683/2/5
f 685/2/5 672/2/5 677/2/5
f 686/2/5 672/2/5 685/2/5
f 687/2/5 672/2/5 686/2/5
f 689/2/5 682/2/5 681/2/5
f 689/2/5 683/2/5 682/2/5
f 690/2/5 683/2/5 689/2/5
f 691/2/5 688/2/5 687/2/5
f 691/2/5 687/2/5 686/2/5
f 692/2/5 688/2/5 691/2/5
f 693/2/5 689/2/5 681/2/5
f 696/2/5 688/2/5 692/2/5
f 697/2/5 694/2/5 693/2/5
f 697/2/5 693/2/5 681/2/5
f 698/2/5 694/2/5 697/2/5
f 699/2/5 694/2/5 698/2/5
f 702/2/5 696/2/5 695/2/5
f 703/2/5 688/2/5 696/2/5
f 703/2/5 696/2/5 702/2/5
f 704/2/5 688/2/5 703/2/5
f 705/2/5 674/2/5 673/2/5
f 706/2/5 674/2/5 705/2/5
f 708/2/5 700/2/5 699/2/5
f 708/2/5 699/2/5 698/2/5
f 709/2/5 702/2/5 701/2/5
f 709/2/5 703/2/5 702/2/5
f 711/2/5 680/2/5 679/2/5
f 712/2/5 680/2/5 711/2/5
f 713/2/5 709/2/5 708/2/5
f 713/2/5 708/2/5 698/2/5
f 714/2/5 709/2/5 713/2/5
f 715/2/5 703/2/5 709/2/5
f 715/2/5 709/2/5 714/2/5
f 716/2/5 703/2/5 715/2/5
f 717/2/5 707/2/5 706/2/5
f 718/2/5 707/2/5 717/2/5
f 720/2/5 715/2/5 714/2/5
f 721/2/5 715/2/5 720/2/5
f 722/2/5 715/2/5 721/2/5
f 723/2/5 715/2/5 722/2/5
f 725/2/5 711/2/5 710/2/5
f 726/2/5 711/2/5 725/2/5
f 727/2/5 719/2/5 718/2/5
f 728/2/5 719/2/5 727/2/5
f 730/2/5 722/2/5 721/2/5
f 731/2/5 722/2/5 730/2/5
f 733/2/5 725/2/5 724/2/5
f 734/2/5 725/2/5 733/2/5
f 735/2/5 729/2/5 728/2/5
f 736/2/5 729/2/5 735/2/5
f 737/2/5 733/2/5 732/2/5
f 738/2/5 733/2/5 737/2/5
f 739/2/5 737/2/5 736/2/5
f 740/2/5 737/2/5 739/2/5
f 741/2/6 742/2/6 744/2/6
f 744/2/6 742/2/6 745/2/6
f 743/2/6 744/2/6 748/2/6
f 748/2/6 744/2/6 749/2/6
f 745/2/6 746/2/6 752/2/6
f 752/2/6 746/2/6 753/2/6
f 747/2/6 748/2/6 756/2/6
f 756/2/6 748/2/6 757/2/6
f 750/2/6 751/2/6 759/2/6
f 759/2/6 751/2/6 760/2/6
f 753/2/6 754/2/6 762/2/6
f 762/2/6 754/2/6 763/2/6
f 760/2/6 761/2/6 766/2/6
f 758/2/6 759/2/6 766/2/6
f 759/2/6 760/2/6 766/2/6
f 766/2/6 761/2/6 767/2/6
f 755/2/6 756/2/6 770/2/6
f 770/2/6 756/2/6 771/2/6
f 767/2/6 768/2/6 772/2/6
f 765/2/6 766/2/6 772/2/6
f 766/2/6 767/2/6 772/2/6
f 772/2/6 768/2/6 773/2/6
f 763/2/6 764/2/6 774/2/6
f 774/2/6 764/2/6 775/2/6
f 765/2/6 772/2/6 778/2/6
f 778/2/6 772/2/6 779/2/6
f 779/2/6 772/2/6 780/2/6
f 773/2/6 768/2/6 781/2/6
f 781/2/6 768/2/6 782/2/6
f 782/2/6 768/2/6 783/2/6
f 777/2/6 778/2/6 785/2/6
f 778/2/6 779/2/6 785/2/6
f 785/2/6 779/2/6 786/2/6
f 783/2/6 784/2/6 787/2/6
f 782/2/6 783/2/6 787/2/6
f 787/2/6 784/2/6 788/2/6
f 777/2/6 785/2/6 789/2/6
f 788/2/6 784/2/6 792/2/6
f 789/2/6 790/2/6 793/2/6
f 777/2/6 789/2/6 793/2/6
f 793/2/6 790/2/6 794/2/6
f 794/2/6 790/2/6 795/2/6
f 791/2/6 792/2/6 798/2/6
f 792/2/6 784/2/6 799/2/6
f 798/2/6 792/2/6 799/2/6
f 799/2/6 784/2/6 800/2/6
f 769/2/6 770/2/6 801/2/6
f 801/2/6 770/2/6 802/2/6
f 795/2/6 796/2/6 804/2/6
f 794/2/6 795/2/6 804/2/6
f 797/2/6 798/2/6 805/2/6
f 798/2/6 799/2/6 805/2/6
f 775/2/6 776/2/6 807/2/6
f 807/2/6 776/2/6 808/2/6
f 804/2/6 805/2/6 809/2/6
f 794/2/6 804/2/6 809/2/6
f 809/2/6 805/2/6 810/2/6
f 805/2/6 799/2/6 811/2/6
f 810/2/6 805/2/6 811/2/6
f 811/2/6 799/2/6 812/2/6
f 802/2/6 803/2/6 813/2/6
f 813/2/6 803/2/6 814/2/6
f 810/2/6 811/2/6 816/2/6
f 816/2/6 811/2/6 817/2/6
f 817/2/6 811/2/6 818/2/6
f 818/2/6 811/2/6 819/2/6
f 806/2/6 807/2/6 821/2/6
f 821/2/6 807/2/6 822/2/6
f 814/2/6 815/2/6 823/2/6
f 823/2/6 815/2/6 824/2/6
f 817/2/6 818/2/6 826/2/6
f 826/2/6 818/2/6 827/2/6
f 820/2/6 821/2/6 829/2/6
f 829/2/6 821/2/6 830/2/6
f 824/2/6 825/2/6 831/2/6
f 831/2/6 825/2/6 832/2/6
f 828/2/6 829/2/6 833/2/6
f 833/2/6 829/2/6 834/2/6
f 832/2/6 833/2/6 835/2/6
f 835/2/6 833/2/6 836/2/6
f 837/1/6 838/1/6 840/1/6
f 840/1/6 838/1/6 841/1/6
f 839/1/6 840/1/6 844/1/6
f 844/1/6 840/1/6 845/1/6
f 841/1/6 842/1/6 846/1/6
f 846/1/6 842/1/6 847/1/6
f 843/1/6 844/1/6 849/1/6
f 849/1/6 844/1/6 850/1/6
f 847/1/6 848/1/6 853/1/6
f 853/1/6 848/1/6 854/1/6
f 850/1/6 851/1/6 855/1/6
f 855/1/6 851/1/6 856/1/6
f 852/1/6 853/1/6 857/1/6
f 857/1/6 853/1/6 858/1/6
f 856/1/6 857/1/6 859/1/6
f 859/1/6 857/1/6 860/1/6
f 861/1/6 862/1/6 864/1/6
f 864/1/6 862/1/6 865/1/6
f 863/1/6 864/1/6 867/1/6
f 867/1/6 864/1/6 868/1/6
f 865/1/6 866/1/6 869/1/6
f 869/1/6 866/1/6 870/1/6
f 868/1/6 869/1/6 871/1/6
f 871/1/6 869/1/6 872/1/6
