# MagicaVoxel @ Ephtracy

# material
mtllib tank.mtl
usemtl palette

# normals
vn -1 0 0
vn 1 0 0
vn 0 0 1
vn 0 0 -1
vn 0 -1 0
vn 0 1 0

# texcoords
vt 0.0214844 0.5
vt 0.0332031 0.5
vt 0.0527344 0.5

# verts
v 4 5 13
v 4 5 12
v 4 6 13
v 4 6 12
v 7 0 20
v 7 0 15
v 7 0 10
v 7 0 5
v 7 2 20
v 7 2 15
v 7 2 10
v 7 2 5
v 9 1 15
v 9 1 10
v 9 2 18
v 9 2 15
v 9 2 10
v 9 2 7
v 9 4 18
v 9 4 7
v 11 4 15
v 11 4 10
v 11 5 13
v 11 5 12
v 11 6 13
v 11 6 12
v 11 7 15
v 11 7 10
v 12 7 14
v 12 7 11
v 12 8 14
v 12 8 11
v 16 7 14
v 16 7 11
v 16 8 14
v 16 8 11
v 17 4 15
v 17 4 10
v 17 7 15
v 17 7 10
v 19 1 15
v 19 1 10
v 19 2 18
v 19 2 15
v 19 2 10
v 19 2 7
v 19 4 18
v 19 4 7
v 20 0 20
v 20 0 15
v 20 0 10
v 20 0 5
v 20 2 20
v 20 2 15
v 20 2 10
v 20 2 5
v 7 0 20
v 7 2 20
v 20 0 20
v 20 2 20
v 9 2 18
v 9 4 18
v 19 2 18
v 19 4 18
v 11 4 15
v 11 7 15
v 17 4 15
v 17 7 15
v 12 7 14
v 12 8 14
v 16 7 14
v 16 8 14
v 4 5 13
v 4 6 13
v 11 5 13
v 11 6 13
v 7 0 10
v 7 2 10
v 9 1 10
v 9 2 10
v 19 1 10
v 19 2 10
v 20 0 10
v 20 2 10
v 7 0 15
v 7 2 15
v 9 1 15
v 9 2 15
v 19 1 15
v 19 2 15
v 20 0 15
v 20 2 15
v 4 5 12
v 4 6 12
v 11 5 12
v 11 6 12
v 12 7 11
v 12 8 11
v 16 7 11
v 16 8 11
v 11 4 10
v 11 7 10
v 17 4 10
v 17 7 10
v 9 2 7
v 9 4 7
v 19 2 7
v 19 4 7
v 7 0 5
v 7 2 5
v 20 0 5
v 20 2 5
v 7 0 20
v 20 0 20
v 7 0 15
v 20 0 15
v 7 0 10
v 20 0 10
v 7 0 5
v 20 0 5
v 9 1 15
v 19 1 15
v 9 1 10
v 19 1 10
v 4 5 13
v 11 5 13
v 4 5 12
v 11 5 12
v 7 2 20
v 20 2 20
v 9 2 18
v 19 2 18
v 7 2 15
v 9 2 15
v 19 2 15
v 20 2 15
v 7 2 10
v 9 2 10
v 19 2 10
v 20 2 10
v 9 2 7
v 19 2 7
v 7 2 5
v 20 2 5
v 9 4 18
v 19 4 18
v 11 4 15
v 17 4 15
v 11 4 10
v 17 4 10
v 9 4 7
v 19 4 7
v 4 6 13
v 11 6 13
v 4 6 12
v 11 6 12
v 11 7 15
v 17 7 15
v 12 7 14
v 16 7 14
v 12 7 11
v 16 7 11
v 11 7 10
v 17 7 10
v 12 8 14
v 16 8 14
v 12 8 11
v 16 8 11

# faces
f 3/3/1 2/3/1 1/3/1
f 4/3/1 2/3/1 3/3/1
f 9/3/1 6/3/1 5/3/1
f 10/3/1 6/3/1 9/3/1
f 11/3/1 8/3/1 7/3/1
f 12/3/1 8/3/1 11/3/1
f 16/2/1 14/2/1 13/2/1
f 17/2/1 14/2/1 16/2/1
f 19/2/1 16/2/1 15/2/1
f 19/2/1 18/2/1 17/2/1
f 19/2/1 17/2/1 16/2/1
f 20/2/1 18/2/1 19/2/1
f 23/2/1 22/2/1 21/2/1
f 24/2/1 22/2/1 23/2/1
f 25/2/1 23/2/1 21/2/1
f 26/2/1 22/2/1 24/2/1
f 27/2/1 25/2/1 21/2/1
f 27/2/1 26/2/1 25/2/1
f 28/2/1 22/2/1 26/2/1
f 28/2/1 26/2/1 27/2/1
f 31/2/1 30/2/1 29/2/1
f 32/2/1 30/2/1 31/2/1
f 33/2/2 34/2/2 35/2/2
f 35/2/2 34/2/2 36/2/2
f 37/2/2 38/2/2 39/2/2
f 39/2/2 38/2/2 40/2/2
f 41/2/2 42/2/2 44/2/2
f 44/2/2 42/2/2 45/2/2
f 43/2/2 44/2/2 47/2/2
f 45/2/2 46/2/2 47/2/2
f 44/2/2 45/2/2 47/2/2
f 47/2/2 46/2/2 48/2/2
f 49/3/2 50/3/2 53/3/2
f 53/3/2 50/3/2 54/3/2
f 51/3/2 52/3/2 55/3/2
f 55/3/2 52/3/2 56/3/2
f 59/3/3 58/3/3 57/3/3
f 60/3/3 58/3/3 59/3/3
f 63/2/3 62/2/3 61/2/3
f 64/2/3 62/2/3 63/2/3
f 67/2/3 66/2/3 65/2/3
f 68/2/3 66/2/3 67/2/3
f 71/2/3 70/2/3 69/2/3
f 72/2/3 70/2/3 71/2/3
f 75/3/3 74/3/3 73/3/3
f 76/3/3 74/3/3 75/3/3
f 79/3/3 78/3/3 77/3/3
f 80/3/3 78/3/3 79/3/3
f 81/3/3 79/3/3 77/3/3
f 83/3/3 81/3/3 77/3/3
f 83/3/3 82/3/3 81/3/3
f 84/3/3 82/3/3 83/3/3
f 85/3/4 86/3/4 87/3/4
f 87/3/4 86/3/4 88/3/4
f 85/3/4 87/3/4 89/3/4
f 85/3/4 89/3/4 91/3/4
f 89/3/4 90/3/4 91/3/4
f 91/3/4 90/3/4 92/3/4
f 93/3/4 94/3/4 95/3/4
f 95/3/4 94/3/4 96/3/4
f 97/2/4 98/2/4 99/2/4
f 99/2/4 98/2/4 100/2/4
f 101/2/4 102/2/4 103/2/4
f 103/2/4 102/2/4 104/2/4
f 105/2/4 106/2/4 107/2/4
f 107/2/4 106/2/4 108/2/4
f 109/3/4 110/3/4 111/3/4
f 111/3/4 110/3/4 112/3/4
f 115/3/5 114/3/5 113/3/5
f 116/3/5 114/3/5 115/3/5
f 119/3/5 118/3/5 117/3/5
f 120/3/5 118/3/5 119/3/5
f 123/2/5 122/2/5 121/2/5
f 124/2/5 122/2/5 123/2/5
f 127/3/5 126/3/5 125/3/5
f 128/3/5 126/3/5 127/3/5
f 129/3/6 130/3/6 131/3/6
f 131/3/6 130/3/6 132/3/6
f 129/3/6 131/3/6 133/3/6
f 133/3/6 131/3/6 134/3/6
f 132/3/6 130/3/6 135/3/6
f 135/3/6 130/3/6 136/3/6
f 137/3/6 138/3/6 141/3/6
f 139/3/6 140/3/6 142/3/6
f 137/3/6 141/3/6 143/3/6
f 141/3/6 142/3/6 143/3/6
f 142/3/6 140/3/6 144/3/6
f 143/3/6 142/3/6 144/3/6
f 145/2/6 146/2/6 147/2/6
f 147/2/6 146/2/6 148/2/6
f 145/2/6 147/2/6 149/2/6
f 148/2/6 146/2/6 150/2/6
f 145/2/6 149/2/6 151/2/6
f 149/2/6 150/2/6 151/2/6
f 150/2/6 146/2/6 152/2/6
f 151/2/6 150/2/6 152/2/6
f 153/3/6 154/3/6 155/3/6
f 155/3/6 154/3/6 156/3/6
f 157/2/6 158/2/6 159/2/6
f 159/2/6 158/2/6 160/2/6
f 157/2/6 159/2/6 161/2/6
f 160/2/6 158/2/6 162/2/6
f 157/2/6 161/2/6 163/2/6
f 161/2/6 162/2/6 163/2/6
f 162/2/6 158/2/6 164/2/6
f 163/2/6 162/2/6 164/2/6
f 165/2/6 166/2/6 167/2/6
f 167/2/6 166/2/6 168/2/6
