# MagicaVoxel @ Ephtracy

# material
mtllib vrjam01_car.mtl
usemtl palette

# normals
vn -1 0 0
vn 1 0 0
vn 0 0 1
vn 0 0 -1
vn 0 -1 0
vn 0 1 0

# texcoords
vt 0.0214844 0.5
vt 0.0253906 0.5
vt 0.0292969 0.5
vt 0.0332031 0.5
vt 0.0371094 0.5
vt 0.0410156 0.5
vt 0.0488281 0.5

# verts
v -3 1 -0
v -3 1 -2
v -3 1 -3
v -3 1 -5
v -3 2 -0
v -3 2 -1
v -3 2 -2
v -3 2 -3
v -3 2 -4
v -3 2 -5
v -3 3 -0
v -3 3 -1
v -3 3 -4
v -3 3 -5
v -1 0 -0
v -1 0 -1
v -1 0 -4
v -1 0 -5
v -1 1 -0
v -1 1 -1
v -1 1 -4
v -1 1 -5
v 0 3 -0
v 0 3 -5
v 0 4 -0
v 0 4 -5
v 0 5 -0
v 0 5 -5
v 2 1 -3
v 2 1 -4
v 2 2 -3
v 2 2 -4
v 3 0 -0
v 3 0 -1
v 3 0 -4
v 3 0 -5
v 3 1 -0
v 3 1 -1
v 3 1 -4
v 3 1 -5
v 1 0 -0
v 1 0 -1
v 1 0 -4
v 1 0 -5
v 1 1 -0
v 1 1 -1
v 1 1 -3
v 1 1 -4
v 1 1 -5
v 1 2 -3
v 1 2 -4
v 4 3 -0
v 4 3 -5
v 4 4 -0
v 4 4 -5
v 4 5 -0
v 4 5 -5
v 5 0 -0
v 5 0 -1
v 5 0 -4
v 5 0 -5
v 5 1 -0
v 5 1 -1
v 5 1 -4
v 5 1 -5
v 6 1 -0
v 6 1 -1
v 6 1 -4
v 6 1 -5
v 6 2 -1
v 6 2 -4
v 6 3 -0
v 6 3 -1
v 6 3 -4
v 6 3 -5
v 7 1 -1
v 7 1 -2
v 7 1 -3
v 7 1 -4
v 7 2 -1
v 7 2 -2
v 7 2 -3
v 7 2 -4
v 7 3 -1
v 7 3 -4
v -3 1 -0
v -3 2 -0
v -3 3 -0
v -2 1 -0
v -2 2 -0
v -2 3 -0
v -1 0 -0
v -1 1 -0
v -1 2 -0
v 0 3 -0
v 0 4 -0
v 0 5 -0
v 1 0 -0
v 1 1 -0
v 1 2 -0
v 1 3 -0
v 1 4 -0
v 3 0 -0
v 3 1 -0
v 3 2 -0
v 3 3 -0
v 3 4 -0
v 4 3 -0
v 4 4 -0
v 4 5 -0
v 5 0 -0
v 5 1 -0
v 5 2 -0
v 6 1 -0
v 6 3 -0
v 6 1 -1
v 6 2 -1
v 6 3 -1
v 7 1 -1
v 7 2 -1
v 7 3 -1
v -1 0 -4
v -1 1 -4
v 1 0 -4
v 1 1 -4
v 1 2 -4
v 2 1 -4
v 2 2 -4
v 3 0 -4
v 3 1 -4
v 5 0 -4
v 5 1 -4
v -1 0 -1
v -1 1 -1
v 1 0 -1
v 1 1 -1
v 3 0 -1
v 3 1 -1
v 5 0 -1
v 5 1 -1
v 1 1 -3
v 1 2 -3
v 2 1 -3
v 2 2 -3
v 6 1 -4
v 6 2 -4
v 6 3 -4
v 7 1 -4
v 7 2 -4
v 7 3 -4
v -3 1 -5
v -3 2 -5
v -3 3 -5
v -2 1 -5
v -2 2 -5
v -2 3 -5
v -1 0 -5
v -1 1 -5
v -1 2 -5
v 0 3 -5
v 0 4 -5
v 0 5 -5
v 1 0 -5
v 1 1 -5
v 1 2 -5
v 1 3 -5
v 1 4 -5
v 3 0 -5
v 3 1 -5
v 3 2 -5
v 3 3 -5
v 3 4 -5
v 4 3 -5
v 4 4 -5
v 4 5 -5
v 5 0 -5
v 5 1 -5
v 5 2 -5
v 6 1 -5
v 6 3 -5
v -1 0 -0
v 1 0 -0
v 3 0 -0
v 5 0 -0
v -1 0 -1
v 1 0 -1
v 3 0 -1
v 5 0 -1
v -1 0 -4
v 1 0 -4
v 3 0 -4
v 5 0 -4
v -1 0 -5
v 1 0 -5
v 3 0 -5
v 5 0 -5
v -3 1 -0
v -2 1 -0
v -1 1 -0
v 1 1 -0
v 3 1 -0
v 5 1 -0
v 6 1 -0
v -1 1 -1
v 1 1 -1
v 3 1 -1
v 5 1 -1
v 6 1 -1
v 7 1 -1
v -3 1 -2
v -2 1 -2
v 6 1 -2
v 7 1 -2
v -3 1 -3
v -2 1 -3
v 1 1 -3
v 2 1 -3
v 6 1 -3
v 7 1 -3
v -1 1 -4
v 1 1 -4
v 2 1 -4
v 3 1 -4
v 5 1 -4
v 6 1 -4
v 7 1 -4
v -3 1 -5
v -2 1 -5
v -1 1 -5
v 1 1 -5
v 3 1 -5
v 5 1 -5
v 6 1 -5
v 1 2 -3
v 2 2 -3
v 1 2 -4
v 2 2 -4
v -3 3 -0
v -2 3 -0
v 0 3 -0
v 4 3 -0
v 6 3 -0
v -3 3 -1
v -2 3 -1
v 6 3 -1
v 7 3 -1
v -3 3 -4
v -2 3 -4
v 6 3 -4
v 7 3 -4
v -3 3 -5
v -2 3 -5
v 0 3 -5
v 4 3 -5
v 6 3 -5
v 0 5 -0
v 4 5 -0
v 0 5 -5
v 4 5 -5

# faces
f 5/2/1 2/2/1 1/2/1
f 6/2/1 2/2/1 5/2/1
f 7/3/1 3/3/1 2/3/1
f 7/2/1 2/2/1 6/2/1
f 8/2/1 4/2/1 3/2/1
f 8/3/1 3/3/1 7/3/1
f 9/2/1 4/2/1 8/2/1
f 10/2/1 4/2/1 9/2/1
f 11/6/1 6/6/1 5/6/1
f 12/4/1 7/4/1 6/4/1
f 12/6/1 6/6/1 11/6/1
f 12/4/1 8/4/1 7/4/1
f 12/4/1 9/4/1 8/4/1
f 13/6/1 10/6/1 9/6/1
f 13/4/1 9/4/1 12/4/1
f 14/6/1 10/6/1 13/6/1
f 19/1/1 16/1/1 15/1/1
f 20/1/1 16/1/1 19/1/1
f 21/1/1 18/1/1 17/1/1
f 22/1/1 18/1/1 21/1/1
f 25/7/1 24/7/1 23/7/1
f 26/7/1 24/7/1 25/7/1
f 27/4/1 26/4/1 25/4/1
f 28/4/1 26/4/1 27/4/1
f 31/4/1 30/4/1 29/4/1
f 32/4/1 30/4/1 31/4/1
f 37/1/1 34/1/1 33/1/1
f 38/1/1 34/1/1 37/1/1
f 39/1/1 36/1/1 35/1/1
f 40/1/1 36/1/1 39/1/1
f 41/1/2 42/1/2 45/1/2
f 45/1/2 42/1/2 46/1/2
f 43/1/2 44/1/2 48/1/2
f 48/1/2 44/1/2 49/1/2
f 47/4/2 48/4/2 50/4/2
f 50/4/2 48/4/2 51/4/2
f 52/7/2 53/7/2 54/7/2
f 54/7/2 53/7/2 55/7/2
f 54/4/2 55/4/2 56/4/2
f 56/4/2 55/4/2 57/4/2
f 58/1/2 59/1/2 62/1/2
f 62/1/2 59/1/2 63/1/2
f 60/1/2 61/1/2 64/1/2
f 64/1/2 61/1/2 65/1/2
f 66/4/2 67/4/2 70/4/2
f 68/4/2 69/4/2 71/4/2
f 66/4/2 70/4/2 72/4/2
f 72/4/2 70/4/2 73/4/2
f 71/4/2 69/4/2 74/4/2
f 74/4/2 69/4/2 75/4/2
f 76/2/2 77/2/2 80/2/2
f 77/3/2 78/3/2 81/3/2
f 80/2/2 77/2/2 81/2/2
f 78/2/2 79/2/2 82/2/2
f 81/3/2 78/3/2 82/3/2
f 82/2/2 79/2/2 83/2/2
f 80/4/2 81/4/2 84/4/2
f 81/4/2 82/4/2 84/4/2
f 82/4/2 83/4/2 84/4/2
f 84/4/2 83/4/2 85/4/2
f 89/2/3 87/2/3 86/2/3
f 90/6/3 88/6/3 87/6/3
f 90/2/3 87/2/3 89/2/3
f 91/6/3 88/6/3 90/6/3
f 93/4/3 90/4/3 89/4/3
f 93/4/3 91/4/3 90/4/3
f 94/4/3 91/4/3 93/4/3
f 95/4/3 91/4/3 94/4/3
f 98/1/3 93/1/3 92/1/3
f 98/1/3 94/1/3 93/1/3
f 99/1/3 94/1/3 98/1/3
f 100/4/3 95/4/3 94/4/3
f 100/1/3 94/1/3 99/1/3
f 101/7/3 96/7/3 95/7/3
f 101/4/3 95/4/3 100/4/3
f 102/4/3 97/4/3 96/4/3
f 102/7/3 96/7/3 101/7/3
f 104/4/3 101/4/3 100/4/3
f 104/4/3 100/4/3 99/4/3
f 105/4/3 101/4/3 104/4/3
f 106/5/3 102/5/3 101/5/3
f 106/4/3 101/4/3 105/4/3
f 107/4/3 97/4/3 102/4/3
f 107/5/3 102/5/3 106/5/3
f 108/4/3 106/4/3 105/4/3
f 108/7/3 107/7/3 106/7/3
f 109/4/3 97/4/3 107/4/3
f 109/7/3 107/7/3 108/7/3
f 110/4/3 97/4/3 109/4/3
f 111/1/3 105/1/3 104/1/3
f 111/1/3 104/1/3 103/1/3
f 112/1/3 105/1/3 111/1/3
f 113/4/3 108/4/3 105/4/3
f 113/1/3 105/1/3 112/1/3
f 114/4/3 113/4/3 112/4/3
f 115/4/3 108/4/3 113/4/3
f 115/4/3 113/4/3 114/4/3
f 119/2/3 117/2/3 116/2/3
f 120/4/3 118/4/3 117/4/3
f 120/2/3 117/2/3 119/2/3
f 121/4/3 118/4/3 120/4/3
f 124/1/3 123/1/3 122/1/3
f 125/1/3 123/1/3 124/1/3
f 127/4/3 126/4/3 125/4/3
f 128/4/3 126/4/3 127/4/3
f 131/1/3 130/1/3 129/1/3
f 132/1/3 130/1/3 131/1/3
f 133/1/4 134/1/4 135/1/4
f 135/1/4 134/1/4 136/1/4
f 137/1/4 138/1/4 139/1/4
f 139/1/4 138/1/4 140/1/4
f 141/4/4 142/4/4 143/4/4
f 143/4/4 142/4/4 144/4/4
f 145/2/4 146/2/4 148/2/4
f 146/4/4 147/4/4 149/4/4
f 148/2/4 146/2/4 149/2/4
f 149/4/4 147/4/4 150/4/4
f 151/2/4 152/2/4 154/2/4
f 152/6/4 153/6/4 155/6/4
f 154/2/4 152/2/4 155/2/4
f 155/6/4 153/6/4 156/6/4
f 154/4/4 155/4/4 158/4/4
f 155/4/4 156/4/4 158/4/4
f 158/4/4 156/4/4 159/4/4
f 159/4/4 156/4/4 160/4/4
f 157/1/4 158/1/4 163/1/4
f 158/1/4 159/1/4 163/1/4
f 163/1/4 159/1/4 164/1/4
f 159/4/4 160/4/4 165/4/4
f 164/1/4 159/1/4 165/1/4
f 160/7/4 161/7/4 166/7/4
f 165/4/4 160/4/4 166/4/4
f 161/4/4 162/4/4 167/4/4
f 166/7/4 161/7/4 167/7/4
f 165/4/4 166/4/4 169/4/4
f 164/4/4 165/4/4 169/4/4
f 169/4/4 166/4/4 170/4/4
f 166/5/4 167/5/4 171/5/4
f 170/4/4 166/4/4 171/4/4
f 167/4/4 162/4/4 172/4/4
f 171/5/4 167/5/4 172/5/4
f 170/4/4 171/4/4 173/4/4
f 171/7/4 172/7/4 173/7/4
f 172/4/4 162/4/4 174/4/4
f 173/7/4 172/7/4 174/7/4
f 174/4/4 162/4/4 175/4/4
f 169/1/4 170/1/4 176/1/4
f 168/1/4 169/1/4 176/1/4
f 176/1/4 170/1/4 177/1/4
f 170/4/4 173/4/4 178/4/4
f 177/1/4 170/1/4 178/1/4
f 177/4/4 178/4/4 179/4/4
f 178/4/4 173/4/4 180/4/4
f 179/4/4 178/4/4 180/4/4
f 185/1/5 182/1/5 181/1/5
f 186/1/5 182/1/5 185/1/5
f 187/1/5 184/1/5 183/1/5
f 188/1/5 184/1/5 187/1/5
f 193/1/5 190/1/5 189/1/5
f 194/1/5 190/1/5 193/1/5
f 195/1/5 192/1/5 191/1/5
f 196/1/5 192/1/5 195/1/5
f 204/4/5 199/4/5 198/4/5
f 205/4/5 201/4/5 200/4/5
f 206/4/5 201/4/5 205/4/5
f 207/4/5 203/4/5 202/4/5
f 208/4/5 203/4/5 207/4/5
f 210/2/5 198/2/5 197/2/5
f 211/4/5 206/4/5 205/4/5
f 211/2/5 198/2/5 210/2/5
f 211/4/5 204/4/5 198/4/5
f 211/4/5 208/4/5 207/4/5
f 211/4/5 207/4/5 206/4/5
f 211/4/5 205/4/5 204/4/5
f 212/2/5 209/2/5 208/2/5
f 212/4/5 208/4/5 211/4/5
f 213/2/5 209/2/5 212/2/5
f 214/3/5 211/3/5 210/3/5
f 215/4/5 212/4/5 211/4/5
f 215/3/5 211/3/5 214/3/5
f 216/4/5 212/4/5 215/4/5
f 217/4/5 212/4/5 216/4/5
f 218/3/5 213/3/5 212/3/5
f 218/4/5 212/4/5 217/4/5
f 219/3/5 213/3/5 218/3/5
f 220/4/5 216/4/5 215/4/5
f 221/4/5 216/4/5 220/4/5
f 222/4/5 218/4/5 217/4/5
f 223/4/5 218/4/5 222/4/5
f 224/4/5 218/4/5 223/4/5
f 225/2/5 219/2/5 218/2/5
f 225/4/5 218/4/5 224/4/5
f 226/2/5 219/2/5 225/2/5
f 227/2/5 215/2/5 214/2/5
f 228/4/5 220/4/5 215/4/5
f 228/2/5 215/2/5 227/2/5
f 229/4/5 220/4/5 228/4/5
f 230/4/5 223/4/5 222/4/5
f 230/4/5 222/4/5 221/4/5
f 231/4/5 223/4/5 230/4/5
f 232/4/5 225/4/5 224/4/5
f 233/4/5 225/4/5 232/4/5
f 236/4/5 235/4/5 234/4/5
f 237/4/5 235/4/5 236/4/5
f 238/6/6 239/6/6 243/6/6
f 239/4/6 240/4/6 244/4/6
f 243/6/6 239/6/6 244/6/6
f 241/4/6 242/4/6 245/4/6
f 243/4/6 244/4/6 247/4/6
f 244/4/6 240/4/6 248/4/6
f 247/4/6 244/4/6 248/4/6
f 245/4/6 246/4/6 249/4/6
f 241/4/6 245/4/6 249/4/6
f 249/4/6 246/4/6 250/4/6
f 247/6/6 248/6/6 251/6/6
f 248/4/6 240/4/6 252/4/6
f 251/6/6 248/6/6 252/6/6
f 252/4/6 240/4/6 253/4/6
f 241/4/6 249/4/6 254/4/6
f 254/4/6 249/4/6 255/4/6
f 256/4/6 257/4/6 258/4/6
f 258/4/6 257/4/6 259/4/6
