# MagicaVoxel @ Ephtracy

# material
mtllib vrjam01_towerofstairs_02.mtl
usemtl palette

# normals
vn -1 0 0
vn 1 0 0
vn 0 0 1
vn 0 0 -1
vn 0 -1 0
vn 0 1 0

# texcoords
vt 0.0214844 0.5
vt 0.0253906 0.5
vt 0.0292969 0.5
vt 0.0488281 0.5
vt 0.943359 0.5
vt 0.955078 0.5
vt 0.994141 0.5

# verts
v -7 0 5
v -7 0 4
v -7 0 3
v -7 0 -5
v -7 0 -6
v -7 0 -7
v -7 1 5
v -7 1 4
v -7 1 2
v -7 1 -4
v -7 2 3
v -7 2 2
v -7 2 -4
v -7 2 -5
v -7 25 3
v -7 25 2
v -7 25 -4
v -7 25 -5
v -7 26 5
v -7 26 4
v -7 26 3
v -7 26 -5
v -7 26 -6
v -7 26 -7
v -7 29 6
v -7 29 4
v -7 29 -6
v -7 29 -8
v -7 38 6
v -7 38 4
v -7 38 -6
v -7 38 -8
v -7 40 4
v -7 40 -6
v -6 0 6
v -6 0 5
v -6 0 4
v -6 0 3
v -6 0 -5
v -6 0 -6
v -6 0 -7
v -6 0 -8
v -6 1 5
v -6 1 4
v -6 2 3
v -6 2 -5
v -6 25 3
v -6 25 -5
v -6 26 6
v -6 26 5
v -6 26 4
v -6 26 3
v -6 26 -5
v -6 26 -6
v -6 26 -7
v -6 26 -8
v -6 28 6
v -6 28 4
v -6 28 -6
v -6 28 -8
v -6 29 6
v -6 29 4
v -6 29 -6
v -6 29 -8
v -5 26 4
v -5 26 -6
v -5 27 4
v -5 27 -6
v -5 28 4
v -5 28 -6
v -4 0 6
v -4 0 5
v -4 0 -7
v -4 0 -8
v -4 2 6
v -4 2 5
v -4 2 -7
v -4 2 -8
v -4 25 -7
v -4 25 -8
v -4 26 6
v -4 26 5
v -4 26 -7
v -4 26 -8
v 5 0 6
v 5 0 5
v 5 0 -7
v 5 0 -8
v 5 26 6
v 5 26 5
v 5 26 -7
v 5 26 -8
v -5 0 6
v -5 0 5
v -5 0 -7
v -5 0 -8
v -5 26 6
v -5 26 5
v -5 26 -7
v -5 26 -8
v -4 37 6
v -4 37 4
v -4 37 -6
v -4 37 -8
v -4 38 6
v -4 38 4
v -4 38 -6
v -4 38 -8
v -3 36 6
v -3 36 4
v -3 36 -6
v -3 36 -8
v -3 37 6
v -3 37 4
v -3 37 -6
v -3 37 -8
v -3 39 4
v -3 39 -6
v -3 40 4
v -3 40 -6
v -2 35 6
v -2 35 4
v -2 35 -6
v -2 35 -8
v -2 36 6
v -2 36 4
v -2 36 -6
v -2 36 -8
v -2 38 4
v -2 38 -6
v -2 39 4
v -2 39 -6
v -1 34 6
v -1 34 4
v -1 34 -6
v -1 34 -8
v -1 35 6
v -1 35 4
v -1 35 -6
v -1 35 -8
v -1 37 4
v -1 37 -6
v -1 38 4
v -1 38 -6
v 0 33 6
v 0 33 4
v 0 33 -6
v 0 33 -8
v 0 34 6
v 0 34 4
v 0 34 -6
v 0 34 -8
v 0 36 4
v 0 36 -6
v 0 37 4
v 0 37 -6
v 1 32 6
v 1 32 4
v 1 32 -6
v 1 32 -8
v 1 33 6
v 1 33 4
v 1 33 -6
v 1 33 -8
v 1 35 4
v 1 35 -6
v 1 36 4
v 1 36 -6
v 2 31 6
v 2 31 4
v 2 31 -6
v 2 31 -8
v 2 32 6
v 2 32 4
v 2 32 -6
v 2 32 -8
v 2 34 4
v 2 34 -6
v 2 35 4
v 2 35 -6
v 3 30 6
v 3 30 4
v 3 30 -6
v 3 30 -8
v 3 31 6
v 3 31 4
v 3 31 -6
v 3 31 -8
v 3 33 4
v 3 33 -6
v 3 34 4
v 3 34 -6
v 4 0 6
v 4 0 5
v 4 0 -7
v 4 0 -8
v 4 2 6
v 4 2 5
v 4 2 -7
v 4 2 -8
v 4 25 -7
v 4 25 -8
v 4 26 6
v 4 26 5
v 4 26 -7
v 4 26 -8
v 4 29 6
v 4 29 4
v 4 29 -6
v 4 29 -8
v 4 30 6
v 4 30 4
v 4 30 -6
v 4 30 -8
v 4 32 4
v 4 32 -6
v 4 33 4
v 4 33 -6
v 5 26 4
v 5 26 -6
v 5 27 4
v 5 27 -6
v 5 28 6
v 5 28 4
v 5 28 -6
v 5 28 -8
v 5 29 6
v 5 29 4
v 5 29 -6
v 5 29 -8
v 5 31 4
v 5 31 -6
v 5 32 4
v 5 32 -6
v 6 0 6
v 6 0 5
v 6 0 4
v 6 0 3
v 6 0 -5
v 6 0 -6
v 6 0 -7
v 6 0 -8
v 6 2 3
v 6 2 -5
v 6 25 3
v 6 25 -5
v 6 26 6
v 6 26 5
v 6 26 4
v 6 26 3
v 6 26 -5
v 6 26 -6
v 6 26 -7
v 6 26 -8
v 6 30 4
v 6 30 -6
v 6 31 4
v 6 31 -6
v 7 0 5
v 7 0 4
v 7 0 3
v 7 0 -5
v 7 0 -6
v 7 0 -7
v 7 1 2
v 7 1 -4
v 7 2 3
v 7 2 2
v 7 2 -4
v 7 2 -5
v 7 25 3
v 7 25 2
v 7 25 -4
v 7 25 -5
v 7 26 5
v 7 26 4
v 7 26 3
v 7 26 -5
v 7 26 -6
v 7 26 -7
v 7 28 4
v 7 28 -6
v 7 30 4
v 7 30 -6
v -7 29 6
v -7 38 6
v -6 0 6
v -6 26 6
v -6 28 6
v -6 29 6
v -5 0 6
v -5 26 6
v -4 0 6
v -4 2 6
v -4 26 6
v -4 37 6
v -4 38 6
v -3 1 6
v -3 2 6
v -3 25 6
v -3 36 6
v -3 37 6
v -2 35 6
v -2 36 6
v -1 34 6
v -1 35 6
v 0 33 6
v 0 34 6
v 1 32 6
v 1 33 6
v 2 31 6
v 2 32 6
v 3 1 6
v 3 2 6
v 3 25 6
v 3 30 6
v 3 31 6
v 4 0 6
v 4 2 6
v 4 26 6
v 4 29 6
v 4 30 6
v 5 0 6
v 5 26 6
v 5 28 6
v 5 29 6
v 6 0 6
v 6 26 6
v -7 0 5
v -7 1 5
v -7 26 5
v -6 0 5
v -6 1 5
v -6 26 5
v -5 0 5
v -5 26 5
v -4 0 5
v -4 2 5
v -4 26 5
v 4 0 5
v 4 2 5
v 4 26 5
v 5 0 5
v 5 26 5
v 6 0 5
v 6 26 5
v 7 0 5
v 7 26 5
v -7 38 4
v -7 40 4
v -5 26 4
v -5 27 4
v -5 28 4
v -4 26 4
v -4 37 4
v -4 38 4
v -3 36 4
v -3 37 4
v -3 39 4
v -3 40 4
v -2 35 4
v -2 36 4
v -2 38 4
v -2 39 4
v -1 34 4
v -1 35 4
v -1 37 4
v -1 38 4
v 0 33 4
v 0 34 4
v 0 36 4
v 0 37 4
v 1 32 4
v 1 33 4
v 1 35 4
v 1 36 4
v 2 31 4
v 2 32 4
v 2 34 4
v 2 35 4
v 3 30 4
v 3 31 4
v 3 33 4
v 3 34 4
v 4 26 4
v 4 29 4
v 4 30 4
v 4 32 4
v 4 33 4
v 5 26 4
v 5 27 4
v 5 28 4
v 5 29 4
v 5 31 4
v 5 32 4
v 6 30 4
v 6 31 4
v 7 28 4
v 7 30 4
v -7 0 3
v -7 2 3
v -7 25 3
v -7 26 3
v -6 0 3
v -6 2 3
v -6 25 3
v -6 26 3
v 6 0 3
v 6 2 3
v 6 25 3
v 6 26 3
v 7 0 3
v 7 2 3
v 7 25 3
v 7 26 3
v -7 0 -6
v -7 26 -6
v -6 0 -6
v -6 26 -6
v 6 0 -6
v 6 26 -6
v 7 0 -6
v 7 26 -6
v -7 0 4
v -7 1 4
v -7 26 4
v -6 0 4
v -6 1 4
v -6 26 4
v 6 0 4
v 6 26 4
v 7 0 4
v 7 26 4
v -7 0 -5
v -7 2 -5
v -7 25 -5
v -7 26 -5
v -6 0 -5
v -6 2 -5
v -6 25 -5
v -6 26 -5
v 6 0 -5
v 6 2 -5
v 6 25 -5
v 6 26 -5
v 7 0 -5
v 7 2 -5
v 7 25 -5
v 7 26 -5
v -7 38 -6
v -7 40 -6
v -5 26 -6
v -5 27 -6
v -5 28 -6
v -4 37 -6
v -4 38 -6
v -3 36 -6
v -3 37 -6
v -3 39 -6
v -3 40 -6
v -2 35 -6
v -2 36 -6
v -2 38 -6
v -2 39 -6
v -1 34 -6
v -1 35 -6
v -1 37 -6
v -1 38 -6
v 0 33 -6
v 0 34 -6
v 0 36 -6
v 0 37 -6
v 1 32 -6
v 1 33 -6
v 1 35 -6
v 1 36 -6
v 2 31 -6
v 2 32 -6
v 2 34 -6
v 2 35 -6
v 3 30 -6
v 3 31 -6
v 3 33 -6
v 3 34 -6
v 4 29 -6
v 4 30 -6
v 4 32 -6
v 4 33 -6
v 5 26 -6
v 5 27 -6
v 5 28 -6
v 5 29 -6
v 5 31 -6
v 5 32 -6
v 6 30 -6
v 6 31 -6
v 7 28 -6
v 7 30 -6
v -7 0 -7
v -7 26 -7
v -6 0 -7
v -6 26 -7
v -5 0 -7
v -5 26 -7
v -4 0 -7
v -4 2 -7
v -4 25 -7
v -4 26 -7
v 4 0 -7
v 4 2 -7
v 4 25 -7
v 4 26 -7
v 5 0 -7
v 5 26 -7
v 6 0 -7
v 6 26 -7
v 7 0 -7
v 7 26 -7
v -7 29 -8
v -7 38 -8
v -6 0 -8
v -6 26 -8
v -6 28 -8
v -6 29 -8
v -5 0 -8
v -5 26 -8
v -4 0 -8
v -4 2 -8
v -4 25 -8
v -4 26 -8
v -4 37 -8
v -4 38 -8
v -3 1 -8
v -3 2 -8
v -3 25 -8
v -3 36 -8
v -3 37 -8
v -2 35 -8
v -2 36 -8
v -1 34 -8
v -1 35 -8
v 0 33 -8
v 0 34 -8
v 1 32 -8
v 1 33 -8
v 2 31 -8
v 2 32 -8
v 3 1 -8
v 3 2 -8
v 3 25 -8
v 3 30 -8
v 3 31 -8
v 4 0 -8
v 4 2 -8
v 4 25 -8
v 4 26 -8
v 4 29 -8
v 4 30 -8
v 5 0 -8
v 5 26 -8
v 5 28 -8
v 5 29 -8
v 6 0 -8
v 6 26 -8
v -6 0 6
v -5 0 6
v -4 0 6
v 4 0 6
v 5 0 6
v 6 0 6
v -7 0 5
v -6 0 5
v -5 0 5
v -4 0 5
v 4 0 5
v 5 0 5
v 6 0 5
v 7 0 5
v -7 0 4
v -6 0 4
v 6 0 4
v 7 0 4
v -7 0 3
v -6 0 3
v -4 0 3
v 4 0 3
v 6 0 3
v 7 0 3
v -2 0 1
v 2 0 1
v -2 0 -3
v 2 0 -3
v -7 0 -5
v -6 0 -5
v -5 0 -5
v 4 0 -5
v 6 0 -5
v 7 0 -5
v -7 0 -6
v -6 0 -6
v -5 0 -6
v -4 0 -6
v 6 0 -6
v 7 0 -6
v -7 0 -7
v -6 0 -7
v -5 0 -7
v -4 0 -7
v 4 0 -7
v 5 0 -7
v 6 0 -7
v 7 0 -7
v -6 0 -8
v -5 0 -8
v -4 0 -8
v 4 0 -8
v 5 0 -8
v 6 0 -8
v -6 28 6
v 5 28 6
v -6 28 4
v -5 28 4
v 5 28 4
v 7 28 4
v -6 28 -6
v -5 28 -6
v 5 28 -6
v 7 28 -6
v -6 28 -8
v 5 28 -8
v -7 29 6
v -6 29 6
v -7 29 4
v -6 29 4
v -7 29 -6
v -6 29 -6
v -7 29 -8
v -6 29 -8
v -6 26 6
v -5 26 6
v -4 26 6
v 4 26 6
v 5 26 6
v 6 26 6
v -7 26 5
v -6 26 5
v -5 26 5
v -4 26 5
v 4 26 5
v 5 26 5
v 6 26 5
v 7 26 5
v -7 26 4
v -6 26 4
v -5 26 4
v -4 26 4
v 4 26 4
v 5 26 4
v 6 26 4
v 7 26 4
v -7 26 3
v -6 26 3
v 6 26 3
v 7 26 3
v -7 26 -5
v -6 26 -5
v 6 26 -5
v 7 26 -5
v -7 26 -6
v -6 26 -6
v -5 26 -6
v 5 26 -6
v 6 26 -6
v 7 26 -6
v -7 26 -7
v -6 26 -7
v -5 26 -7
v -4 26 -7
v 4 26 -7
v 5 26 -7
v 6 26 -7
v 7 26 -7
v -6 26 -8
v -5 26 -8
v -4 26 -8
v 4 26 -8
v 5 26 -8
v 6 26 -8
v 4 29 6
v 5 29 6
v 4 29 4
v 5 29 4
v 4 29 -6
v 5 29 -6
v 4 29 -8
v 5 29 -8
v 3 30 6
v 4 30 6
v 3 30 4
v 4 30 4
v 6 30 4
v 7 30 4
v 3 30 -6
v 4 30 -6
v 6 30 -6
v 7 30 -6
v 3 30 -8
v 4 30 -8
v 2 31 6
v 3 31 6
v 2 31 4
v 3 31 4
v 5 31 4
v 6 31 4
v 2 31 -6
v 3 31 -6
v 5 31 -6
v 6 31 -6
v 2 31 -8
v 3 31 -8
v 1 32 6
v 2 32 6
v 1 32 4
v 2 32 4
v 4 32 4
v 5 32 4
v 1 32 -6
v 2 32 -6
v 4 32 -6
v 5 32 -6
v 1 32 -8
v 2 32 -8
v 0 33 6
v 1 33 6
v 0 33 4
v 1 33 4
v 3 33 4
v 4 33 4
v 0 33 -6
v 1 33 -6
v 3 33 -6
v 4 33 -6
v 0 33 -8
v 1 33 -8
v -1 34 6
v 0 34 6
v -1 34 4
v 0 34 4
v 2 34 4
v 3 34 4
v -1 34 -6
v 0 34 -6
v 2 34 -6
v 3 34 -6
v -1 34 -8
v 0 34 -8
v -2 35 6
v -1 35 6
v -2 35 4
v -1 35 4
v 1 35 4
v 2 35 4
v -2 35 -6
v -1 35 -6
v 1 35 -6
v 2 35 -6
v -2 35 -8
v -1 35 -8
v -3 36 6
v -2 36 6
v -3 36 4
v -2 36 4
v 0 36 4
v 1 36 4
v -3 36 -6
v -2 36 -6
v 0 36 -6
v 1 36 -6
v -3 36 -8
v -2 36 -8
v -4 37 6
v -3 37 6
v -4 37 4
v -3 37 4
v -1 37 4
v 0 37 4
v -4 37 -6
v -3 37 -6
v -1 37 -6
v 0 37 -6
v -4 37 -8
v -3 37 -8
v -7 38 6
v -4 38 6
v -7 38 4
v -4 38 4
v -2 38 4
v -1 38 4
v -7 38 -6
v -4 38 -6
v -2 38 -6
v -1 38 -6
v -7 38 -8
v -4 38 -8
v -3 39 4
v -2 39 4
v -3 39 -6
v -2 39 -6
v -7 40 4
v -3 40 4
v -7 40 -6
v -3 40 -6

# faces
f 7/6/1 2/6/1 1/6/1
f 8/6/1 2/6/1 7/6/1
f 9/5/1 4/5/1 3/5/1
f 10/5/1 4/5/1 9/5/1
f 11/5/1 9/5/1 3/5/1
f 12/4/1 10/4/1 9/4/1
f 12/5/1 9/5/1 11/5/1
f 13/5/1 4/5/1 10/5/1
f 13/4/1 10/4/1 12/4/1
f 14/5/1 4/5/1 13/5/1
f 15/7/1 12/7/1 11/7/1
f 16/4/1 13/4/1 12/4/1
f 16/7/1 12/7/1 15/7/1
f 17/7/1 14/7/1 13/7/1
f 17/4/1 13/4/1 16/4/1
f 18/7/1 14/7/1 17/7/1
f 19/2/1 8/2/1 7/2/1
f 20/2/1 8/2/1 19/2/1
f 21/5/1 16/5/1 15/5/1
f 21/5/1 17/5/1 16/5/1
f 21/5/1 18/5/1 17/5/1
f 22/5/1 18/5/1 21/5/1
f 23/2/1 6/2/1 5/2/1
f 24/2/1 6/2/1 23/2/1
f 29/2/1 26/2/1 25/2/1
f 30/5/1 27/5/1 26/5/1
f 30/2/1 26/2/1 29/2/1
f 31/2/1 28/2/1 27/2/1
f 31/5/1 27/5/1 30/5/1
f 32/2/1 28/2/1 31/2/1
f 33/5/1 31/5/1 30/5/1
f 34/5/1 31/5/1 33/5/1
f 43/2/1 36/2/1 35/2/1
f 44/5/1 38/5/1 37/5/1
f 45/5/1 38/5/1 44/5/1
f 46/5/1 40/5/1 39/5/1
f 47/5/1 45/5/1 44/5/1
f 48/5/1 40/5/1 46/5/1
f 49/2/1 43/2/1 35/2/1
f 50/2/1 43/2/1 49/2/1
f 51/5/1 47/5/1 44/5/1
f 52/5/1 47/5/1 51/5/1
f 53/5/1 40/5/1 48/5/1
f 54/5/1 40/5/1 53/5/1
f 55/2/1 42/2/1 41/2/1
f 56/2/1 42/2/1 55/2/1
f 61/2/1 58/2/1 57/2/1
f 62/5/1 59/5/1 58/5/1
f 62/2/1 58/2/1 61/2/1
f 63/2/1 60/2/1 59/2/1
f 63/5/1 59/5/1 62/5/1
f 64/2/1 60/2/1 63/2/1
f 67/3/1 66/3/1 65/3/1
f 68/3/1 66/3/1 67/3/1
f 69/1/1 68/1/1 67/1/1
f 70/1/1 68/1/1 69/1/1
f 75/5/1 72/5/1 71/5/1
f 76/5/1 72/5/1 75/5/1
f 77/5/1 74/5/1 73/5/1
f 78/5/1 74/5/1 77/5/1
f 79/7/1 78/7/1 77/7/1
f 80/7/1 78/7/1 79/7/1
f 81/7/1 76/7/1 75/7/1
f 82/7/1 76/7/1 81/7/1
f 83/5/1 80/5/1 79/5/1
f 84/5/1 80/5/1 83/5/1
f 89/2/1 86/2/1 85/2/1
f 90/2/1 86/2/1 89/2/1
f 91/2/1 88/2/1 87/2/1
f 92/2/1 88/2/1 91/2/1
f 93/2/2 94/2/2 97/2/2
f 97/2/2 94/2/2 98/2/2
f 95/2/2 96/2/2 99/2/2
f 99/2/2 96/2/2 100/2/2
f 101/2/2 102/2/2 105/2/2
f 105/2/2 102/2/2 106/2/2
f 103/2/2 104/2/2 107/2/2
f 107/2/2 104/2/2 108/2/2
f 109/2/2 110/2/2 113/2/2
f 113/2/2 110/2/2 114/2/2
f 111/2/2 112/2/2 115/2/2
f 115/2/2 112/2/2 116/2/2
f 117/5/2 118/5/2 119/5/2
f 119/5/2 118/5/2 120/5/2
f 121/2/2 122/2/2 125/2/2
f 125/2/2 122/2/2 126/2/2
f 123/2/2 124/2/2 127/2/2
f 127/2/2 124/2/2 128/2/2
f 129/5/2 130/5/2 131/5/2
f 131/5/2 130/5/2 132/5/2
f 133/2/2 134/2/2 137/2/2
f 137/2/2 134/2/2 138/2/2
f 135/2/2 136/2/2 139/2/2
f 139/2/2 136/2/2 140/2/2
f 141/5/2 142/5/2 143/5/2
f 143/5/2 142/5/2 144/5/2
f 145/2/2 146/2/2 149/2/2
f 149/2/2 146/2/2 150/2/2
f 147/2/2 148/2/2 151/2/2
f 151/2/2 148/2/2 152/2/2
f 153/5/2 154/5/2 155/5/2
f 155/5/2 154/5/2 156/5/2
f 157/2/2 158/2/2 161/2/2
f 161/2/2 158/2/2 162/2/2
f 159/2/2 160/2/2 163/2/2
f 163/2/2 160/2/2 164/2/2
f 165/5/2 166/5/2 167/5/2
f 167/5/2 166/5/2 168/5/2
f 169/2/2 170/2/2 173/2/2
f 173/2/2 170/2/2 174/2/2
f 171/2/2 172/2/2 175/2/2
f 175/2/2 172/2/2 176/2/2
f 177/5/2 178/5/2 179/5/2
f 179/5/2 178/5/2 180/5/2
f 181/2/2 182/2/2 185/2/2
f 185/2/2 182/2/2 186/2/2
f 183/2/2 184/2/2 187/2/2
f 187/2/2 184/2/2 188/2/2
f 189/5/2 190/5/2 191/5/2
f 191/5/2 190/5/2 192/5/2
f 193/5/2 194/5/2 197/5/2
f 197/5/2 194/5/2 198/5/2
f 195/5/2 196/5/2 199/5/2
f 199/5/2 196/5/2 200/5/2
f 199/7/2 200/7/2 201/7/2
f 201/7/2 200/7/2 202/7/2
f 197/7/2 198/7/2 203/7/2
f 203/7/2 198/7/2 204/7/2
f 201/5/2 202/5/2 205/5/2
f 205/5/2 202/5/2 206/5/2
f 207/2/2 208/2/2 211/2/2
f 211/2/2 208/2/2 212/2/2
f 209/2/2 210/2/2 213/2/2
f 213/2/2 210/2/2 214/2/2
f 215/5/2 216/5/2 217/5/2
f 217/5/2 216/5/2 218/5/2
f 219/3/2 220/3/2 221/3/2
f 221/3/2 220/3/2 222/3/2
f 221/1/2 222/1/2 224/1/2
f 224/1/2 222/1/2 225/1/2
f 223/2/2 224/2/2 227/2/2
f 227/2/2 224/2/2 228/2/2
f 225/2/2 226/2/2 229/2/2
f 229/2/2 226/2/2 230/2/2
f 231/5/2 232/5/2 233/5/2
f 233/5/2 232/5/2 234/5/2
f 237/5/2 238/5/2 243/5/2
f 239/5/2 240/5/2 244/5/2
f 237/5/2 243/5/2 245/5/2
f 244/5/2 240/5/2 246/5/2
f 235/2/2 236/2/2 247/2/2
f 247/2/2 236/2/2 248/2/2
f 237/5/2 245/5/2 249/5/2
f 249/5/2 245/5/2 250/5/2
f 246/5/2 240/5/2 251/5/2
f 251/5/2 240/5/2 252/5/2
f 241/2/2 242/2/2 253/2/2
f 253/2/2 242/2/2 254/2/2
f 255/5/2 256/5/2 257/5/2
f 257/5/2 256/5/2 258/5/2
f 261/5/2 262/5/2 265/5/2
f 265/5/2 262/5/2 266/5/2
f 261/5/2 265/5/2 267/5/2
f 265/4/2 266/4/2 268/4/2
f 267/5/2 265/5/2 268/5/2
f 266/5/2 262/5/2 269/5/2
f 268/4/2 266/4/2 269/4/2
f 269/5/2 262/5/2 270/5/2
f 267/7/2 268/7/2 271/7/2
f 268/4/2 269/4/2 272/4/2
f 271/7/2 268/7/2 272/7/2
f 269/7/2 270/7/2 273/7/2
f 272/4/2 269/4/2 273/4/2
f 273/7/2 270/7/2 274/7/2
f 259/2/2 260/2/2 275/2/2
f 275/2/2 260/2/2 276/2/2
f 271/5/2 272/5/2 277/5/2
f 272/5/2 273/5/2 277/5/2
f 273/5/2 274/5/2 277/5/2
f 277/5/2 274/5/2 278/5/2
f 263/2/2 264/2/2 279/2/2
f 279/2/2 264/2/2 280/2/2
f 281/5/2 282/5/2 283/5/2
f 283/5/2 282/5/2 284/5/2
f 290/2/3 286/2/3 285/2/3
f 291/2/3 288/2/3 287/2/3
f 292/2/3 288/2/3 291/2/3
f 296/2/3 290/2/3 289/2/3
f 296/2/3 286/2/3 290/2/3
f 297/2/3 286/2/3 296/2/3
f 298/5/3 294/5/3 293/5/3
f 299/7/3 295/7/3 294/7/3
f 299/5/3 294/5/3 298/5/3
f 300/7/3 295/7/3 299/7/3
f 301/2/3 296/2/3 289/2/3
f 302/2/3 296/2/3 301/2/3
f 303/2/3 301/2/3 289/2/3
f 304/2/3 301/2/3 303/2/3
f 305/2/3 303/2/3 289/2/3
f 306/2/3 303/2/3 305/2/3
f 307/2/3 305/2/3 289/2/3
f 308/2/3 305/2/3 307/2/3
f 309/2/3 307/2/3 289/2/3
f 310/2/3 307/2/3 309/2/3
f 311/2/3 309/2/3 289/2/3
f 312/2/3 309/2/3 311/2/3
f 313/5/3 298/5/3 293/5/3
f 313/4/3 299/4/3 298/4/3
f 313/4/3 300/4/3 299/4/3
f 314/4/3 300/4/3 313/4/3
f 315/7/3 295/7/3 300/7/3
f 315/4/3 300/4/3 314/4/3
f 316/2/3 311/2/3 289/2/3
f 317/2/3 311/2/3 316/2/3
f 318/5/3 314/5/3 313/5/3
f 318/5/3 313/5/3 293/5/3
f 319/7/3 315/7/3 314/7/3
f 319/5/3 314/5/3 318/5/3
f 320/7/3 295/7/3 315/7/3
f 320/7/3 315/7/3 319/7/3
f 321/2/3 316/2/3 289/2/3
f 322/2/3 316/2/3 321/2/3
f 325/2/3 321/2/3 289/2/3
f 326/2/3 321/2/3 325/2/3
f 327/2/3 324/2/3 323/2/3
f 328/2/3 324/2/3 327/2/3
f 332/6/3 330/6/3 329/6/3
f 333/2/3 331/2/3 330/2/3
f 333/6/3 330/6/3 332/6/3
f 334/2/3 331/2/3 333/2/3
f 337/5/3 336/5/3 335/5/3
f 338/5/3 336/5/3 337/5/3
f 339/5/3 336/5/3 338/5/3
f 343/5/3 341/5/3 340/5/3
f 343/5/3 342/5/3 341/5/3
f 344/5/3 342/5/3 343/5/3
f 347/2/3 346/2/3 345/2/3
f 348/2/3 346/2/3 347/2/3
f 354/3/3 352/3/3 351/3/3
f 356/5/3 350/5/3 349/5/3
f 358/5/3 356/5/3 355/5/3
f 359/5/3 350/5/3 356/5/3
f 359/5/3 356/5/3 358/5/3
f 360/5/3 350/5/3 359/5/3
f 362/5/3 358/5/3 357/5/3
f 362/5/3 359/5/3 358/5/3
f 363/5/3 359/5/3 362/5/3
f 364/5/3 359/5/3 363/5/3
f 366/5/3 362/5/3 361/5/3
f 366/5/3 363/5/3 362/5/3
f 367/5/3 363/5/3 366/5/3
f 368/5/3 363/5/3 367/5/3
f 370/5/3 366/5/3 365/5/3
f 370/5/3 367/5/3 366/5/3
f 371/5/3 367/5/3 370/5/3
f 372/5/3 367/5/3 371/5/3
f 374/5/3 370/5/3 369/5/3
f 374/5/3 371/5/3 370/5/3
f 375/5/3 371/5/3 374/5/3
f 376/5/3 371/5/3 375/5/3
f 378/5/3 374/5/3 373/5/3
f 378/5/3 375/5/3 374/5/3
f 379/5/3 375/5/3 378/5/3
f 380/5/3 375/5/3 379/5/3
f 382/5/3 378/5/3 377/5/3
f 382/5/3 379/5/3 378/5/3
f 383/5/3 379/5/3 382/5/3
f 384/5/3 379/5/3 383/5/3
f 385/3/3 352/3/3 354/3/3
f 387/5/3 382/5/3 381/5/3
f 387/5/3 383/5/3 382/5/3
f 388/5/3 383/5/3 387/5/3
f 389/5/3 383/5/3 388/5/3
f 390/3/3 352/3/3 385/3/3
f 391/1/3 353/1/3 352/1/3
f 391/3/3 352/3/3 390/3/3
f 392/1/3 353/1/3 391/1/3
f 393/5/3 387/5/3 386/5/3
f 393/5/3 388/5/3 387/5/3
f 394/5/3 388/5/3 393/5/3
f 395/5/3 388/5/3 394/5/3
f 396/5/3 394/5/3 393/5/3
f 396/5/3 393/5/3 392/5/3
f 397/5/3 394/5/3 396/5/3
f 398/5/3 396/5/3 392/5/3
f 399/5/3 396/5/3 398/5/3
f 404/5/3 401/5/3 400/5/3
f 405/7/3 402/7/3 401/7/3
f 405/5/3 401/5/3 404/5/3
f 406/5/3 403/5/3 402/5/3
f 406/7/3 402/7/3 405/7/3
f 407/5/3 403/5/3 406/5/3
f 412/5/3 409/5/3 408/5/3
f 413/7/3 410/7/3 409/7/3
f 413/5/3 409/5/3 412/5/3
f 414/5/3 411/5/3 410/5/3
f 414/7/3 410/7/3 413/7/3
f 415/5/3 411/5/3 414/5/3
f 418/2/3 417/2/3 416/2/3
f 419/2/3 417/2/3 418/2/3
f 422/2/3 421/2/3 420/2/3
f 423/2/3 421/2/3 422/2/3
f 424/6/4 425/6/4 427/6/4
f 425/2/4 426/2/4 428/2/4
f 427/6/4 425/6/4 428/6/4
f 428/2/4 426/2/4 429/2/4
f 430/2/4 431/2/4 432/2/4
f 432/2/4 431/2/4 433/2/4
f 434/5/4 435/5/4 438/5/4
f 435/7/4 436/7/4 439/7/4
f 438/5/4 435/5/4 439/5/4
f 436/5/4 437/5/4 440/5/4
f 439/7/4 436/7/4 440/7/4
f 440/5/4 437/5/4 441/5/4
f 442/5/4 443/5/4 446/5/4
f 443/7/4 444/7/4 447/7/4
f 446/5/4 443/5/4 447/5/4
f 444/5/4 445/5/4 448/5/4
f 447/7/4 444/7/4 448/7/4
f 448/5/4 445/5/4 449/5/4
f 450/5/4 451/5/4 456/5/4
f 455/5/4 456/5/4 458/5/4
f 456/5/4 451/5/4 459/5/4
f 458/5/4 456/5/4 459/5/4
f 459/5/4 451/5/4 460/5/4
f 457/5/4 458/5/4 462/5/4
f 458/5/4 459/5/4 462/5/4
f 462/5/4 459/5/4 463/5/4
f 463/5/4 459/5/4 464/5/4
f 461/5/4 462/5/4 466/5/4
f 462/5/4 463/5/4 466/5/4
f 466/5/4 463/5/4 467/5/4
f 467/5/4 463/5/4 468/5/4
f 465/5/4 466/5/4 470/5/4
f 466/5/4 467/5/4 470/5/4
f 470/5/4 467/5/4 471/5/4
f 471/5/4 467/5/4 472/5/4
f 469/5/4 470/5/4 474/5/4
f 470/5/4 471/5/4 474/5/4
f 474/5/4 471/5/4 475/5/4
f 475/5/4 471/5/4 476/5/4
f 473/5/4 474/5/4 478/5/4
f 474/5/4 475/5/4 478/5/4
f 478/5/4 475/5/4 479/5/4
f 479/5/4 475/5/4 480/5/4
f 477/5/4 478/5/4 482/5/4
f 478/5/4 479/5/4 482/5/4
f 482/5/4 479/5/4 483/5/4
f 483/5/4 479/5/4 484/5/4
f 481/5/4 482/5/4 486/5/4
f 482/5/4 483/5/4 486/5/4
f 486/5/4 483/5/4 487/5/4
f 487/5/4 483/5/4 488/5/4
f 452/3/4 453/3/4 489/3/4
f 453/1/4 454/1/4 490/1/4
f 489/3/4 453/3/4 490/3/4
f 490/1/4 454/1/4 491/1/4
f 485/5/4 486/5/4 492/5/4
f 486/5/4 487/5/4 492/5/4
f 492/5/4 487/5/4 493/5/4
f 493/5/4 487/5/4 494/5/4
f 492/5/4 493/5/4 495/5/4
f 491/5/4 492/5/4 495/5/4
f 495/5/4 493/5/4 496/5/4
f 491/5/4 495/5/4 497/5/4
f 497/5/4 495/5/4 498/5/4
f 499/2/4 500/2/4 501/2/4
f 501/2/4 500/2/4 502/2/4
f 503/5/4 504/5/4 505/5/4
f 505/5/4 504/5/4 506/5/4
f 506/5/4 504/5/4 507/5/4
f 507/5/4 504/5/4 508/5/4
f 509/5/4 510/5/4 513/5/4
f 511/5/4 512/5/4 513/5/4
f 510/5/4 511/5/4 513/5/4
f 513/5/4 512/5/4 514/5/4
f 515/2/4 516/2/4 517/2/4
f 517/2/4 516/2/4 518/2/4
f 519/2/4 520/2/4 524/2/4
f 521/2/4 522/2/4 525/2/4
f 525/2/4 522/2/4 526/2/4
f 523/2/4 524/2/4 531/2/4
f 524/2/4 520/2/4 531/2/4
f 531/2/4 520/2/4 532/2/4
f 527/5/4 528/5/4 533/5/4
f 528/7/4 529/7/4 534/7/4
f 533/5/4 528/5/4 534/5/4
f 529/5/4 530/5/4 535/5/4
f 534/7/4 529/7/4 535/7/4
f 523/2/4 531/2/4 536/2/4
f 536/2/4 531/2/4 537/2/4
f 523/2/4 536/2/4 538/2/4
f 538/2/4 536/2/4 539/2/4
f 523/2/4 538/2/4 540/2/4
f 540/2/4 538/2/4 541/2/4
f 523/2/4 540/2/4 542/2/4
f 542/2/4 540/2/4 543/2/4
f 523/2/4 542/2/4 544/2/4
f 544/2/4 542/2/4 545/2/4
f 523/2/4 544/2/4 546/2/4
f 546/2/4 544/2/4 547/2/4
f 533/4/4 534/4/4 548/4/4
f 527/5/4 533/5/4 548/5/4
f 534/4/4 535/4/4 548/4/4
f 548/4/4 535/4/4 549/4/4
f 535/5/4 530/5/4 550/5/4
f 549/4/4 535/4/4 550/4/4
f 523/2/4 546/2/4 551/2/4
f 551/2/4 546/2/4 552/2/4
f 548/5/4 549/5/4 553/5/4
f 527/5/4 548/5/4 553/5/4
f 549/7/4 550/7/4 554/7/4
f 553/5/4 549/5/4 554/5/4
f 550/5/4 530/5/4 555/5/4
f 554/7/4 550/7/4 555/7/4
f 555/5/4 530/5/4 556/5/4
f 523/2/4 551/2/4 557/2/4
f 557/2/4 551/2/4 558/2/4
f 523/2/4 557/2/4 561/2/4
f 561/2/4 557/2/4 562/2/4
f 559/2/4 560/2/4 563/2/4
f 563/2/4 560/2/4 564/2/4
f 572/2/5 566/2/5 565/2/5
f 573/2/5 566/2/5 572/2/5
f 574/5/5 568/5/5 567/5/5
f 575/5/5 568/5/5 574/5/5
f 576/2/5 570/2/5 569/2/5
f 577/2/5 570/2/5 576/2/5
f 579/6/5 572/6/5 571/6/5
f 580/5/5 573/5/5 572/5/5
f 580/6/5 572/6/5 579/6/5
f 580/5/5 574/5/5 573/5/5
f 581/2/5 578/2/5 577/2/5
f 581/5/5 577/5/5 576/5/5
f 581/5/5 576/5/5 575/5/5
f 582/2/5 578/2/5 581/2/5
f 584/5/5 574/5/5 580/5/5
f 585/7/5 575/7/5 574/7/5
f 585/5/5 574/5/5 584/5/5
f 586/5/5 581/5/5 575/5/5
f 586/7/5 575/7/5 585/7/5
f 587/5/5 581/5/5 586/5/5
f 589/7/5 585/7/5 584/7/5
f 589/7/5 586/7/5 585/7/5
f 589/7/5 587/7/5 586/7/5
f 590/7/5 587/7/5 589/7/5
f 591/7/5 589/7/5 584/7/5
f 591/5/5 590/5/5 589/5/5
f 592/7/5 587/7/5 590/7/5
f 592/5/5 590/5/5 591/5/5
f 593/5/5 584/5/5 583/5/5
f 594/7/5 591/7/5 584/7/5
f 594/5/5 584/5/5 593/5/5
f 594/7/5 592/7/5 591/7/5
f 595/7/5 592/7/5 594/7/5
f 596/7/5 587/7/5 592/7/5
f 596/7/5 592/7/5 595/7/5
f 597/5/5 588/5/5 587/5/5
f 597/7/5 587/7/5 596/7/5
f 598/5/5 588/5/5 597/5/5
f 600/5/5 595/5/5 594/5/5
f 601/7/5 596/7/5 595/7/5
f 601/5/5 595/5/5 600/5/5
f 602/7/5 596/7/5 601/7/5
f 603/5/5 597/5/5 596/5/5
f 605/2/5 600/2/5 599/2/5
f 606/5/5 601/5/5 600/5/5
f 606/2/5 600/2/5 605/2/5
f 606/5/5 602/5/5 601/5/5
f 607/5/5 602/5/5 606/5/5
f 608/7/5 596/7/5 602/7/5
f 608/5/5 602/5/5 607/5/5
f 609/5/5 603/5/5 596/5/5
f 609/7/5 596/7/5 608/7/5
f 610/5/5 603/5/5 609/5/5
f 611/2/5 604/2/5 603/2/5
f 611/5/5 603/5/5 610/5/5
f 612/2/5 604/2/5 611/2/5
f 613/2/5 607/2/5 606/2/5
f 614/2/5 607/2/5 613/2/5
f 615/5/5 609/5/5 608/5/5
f 616/5/5 609/5/5 615/5/5
f 617/2/5 611/2/5 610/2/5
f 618/2/5 611/2/5 617/2/5
f 621/2/5 620/2/5 619/2/5
f 622/2/5 620/2/5 621/2/5
f 623/2/5 620/2/5 622/2/5
f 625/5/5 622/5/5 621/5/5
f 626/5/5 622/5/5 625/5/5
f 627/5/5 624/5/5 623/5/5
f 628/5/5 624/5/5 627/5/5
f 629/2/5 626/2/5 625/2/5
f 629/2/5 627/2/5 626/2/5
f 630/2/5 627/2/5 629/2/5
f 633/2/5 632/2/5 631/2/5
f 634/2/5 632/2/5 633/2/5
f 635/5/5 634/5/5 633/5/5
f 636/5/5 634/5/5 635/5/5
f 637/2/5 636/2/5 635/2/5
f 638/2/5 636/2/5 637/2/5
f 639/2/6 640/2/6 646/2/6
f 646/2/6 640/2/6 647/2/6
f 641/7/6 642/7/6 648/7/6
f 648/7/6 642/7/6 649/7/6
f 643/2/6 644/2/6 650/2/6
f 650/2/6 644/2/6 651/2/6
f 645/2/6 646/2/6 653/2/6
f 646/5/6 647/5/6 654/5/6
f 653/2/6 646/2/6 654/2/6
f 647/5/6 648/5/6 654/5/6
f 654/5/6 648/5/6 655/5/6
f 648/7/6 649/7/6 656/7/6
f 655/5/6 648/5/6 656/5/6
f 650/5/6 651/5/6 657/5/6
f 656/7/6 649/7/6 657/7/6
f 649/5/6 650/5/6 657/5/6
f 657/5/6 651/5/6 658/5/6
f 651/2/6 652/2/6 659/2/6
f 658/5/6 651/5/6 659/5/6
f 659/2/6 652/2/6 660/2/6
f 654/5/6 655/5/6 662/5/6
f 658/5/6 659/5/6 663/5/6
f 661/5/6 662/5/6 665/5/6
f 662/5/6 655/5/6 666/5/6
f 665/5/6 662/5/6 666/5/6
f 663/5/6 664/5/6 667/5/6
f 658/5/6 663/5/6 667/5/6
f 667/5/6 664/5/6 668/5/6
f 666/5/6 655/5/6 670/5/6
f 670/5/6 655/5/6 671/5/6
f 658/5/6 667/5/6 672/5/6
f 672/5/6 667/5/6 673/5/6
f 669/2/6 670/2/6 675/2/6
f 670/5/6 671/5/6 676/5/6
f 675/2/6 670/2/6 676/2/6
f 671/5/6 672/5/6 676/5/6
f 672/5/6 673/5/6 676/5/6
f 676/5/6 673/5/6 677/5/6
f 677/5/6 673/5/6 678/5/6
f 678/5/6 673/5/6 679/5/6
f 679/5/6 673/5/6 680/5/6
f 673/2/6 674/2/6 681/2/6
f 680/5/6 673/5/6 681/5/6
f 681/2/6 674/2/6 682/2/6
f 676/2/6 677/2/6 683/2/6
f 683/2/6 677/2/6 684/2/6
f 678/5/6 679/5/6 685/5/6
f 685/5/6 679/5/6 686/5/6
f 680/2/6 681/2/6 687/2/6
f 687/2/6 681/2/6 688/2/6
f 689/2/6 690/2/6 691/2/6
f 691/2/6 690/2/6 692/2/6
f 693/2/6 694/2/6 695/2/6
f 695/2/6 694/2/6 696/2/6
f 697/2/6 698/2/6 699/2/6
f 699/2/6 698/2/6 700/2/6
f 701/5/6 702/5/6 705/5/6
f 705/5/6 702/5/6 706/5/6
f 703/2/6 704/2/6 707/2/6
f 707/2/6 704/2/6 708/2/6
f 709/2/6 710/2/6 711/2/6
f 711/2/6 710/2/6 712/2/6
f 713/5/6 714/5/6 717/5/6
f 717/5/6 714/5/6 718/5/6
f 715/2/6 716/2/6 719/2/6
f 719/2/6 716/2/6 720/2/6
f 721/2/6 722/2/6 723/2/6
f 723/2/6 722/2/6 724/2/6
f 725/5/6 726/5/6 729/5/6
f 729/5/6 726/5/6 730/5/6
f 727/2/6 728/2/6 731/2/6
f 731/2/6 728/2/6 732/2/6
f 733/2/6 734/2/6 735/2/6
f 735/2/6 734/2/6 736/2/6
f 737/5/6 738/5/6 741/5/6
f 741/5/6 738/5/6 742/5/6
f 739/2/6 740/2/6 743/2/6
f 743/2/6 740/2/6 744/2/6
f 745/2/6 746/2/6 747/2/6
f 747/2/6 746/2/6 748/2/6
f 749/5/6 750/5/6 753/5/6
f 753/5/6 750/5/6 754/5/6
f 751/2/6 752/2/6 755/2/6
f 755/2/6 752/2/6 756/2/6
f 757/2/6 758/2/6 759/2/6
f 759/2/6 758/2/6 760/2/6
f 761/5/6 762/5/6 765/5/6
f 765/5/6 762/5/6 766/5/6
f 763/2/6 764/2/6 767/2/6
f 767/2/6 764/2/6 768/2/6
f 769/2/6 770/2/6 771/2/6
f 771/2/6 770/2/6 772/2/6
f 773/5/6 774/5/6 777/5/6
f 777/5/6 774/5/6 778/5/6
f 775/2/6 776/2/6 779/2/6
f 779/2/6 776/2/6 780/2/6
f 781/2/6 782/2/6 783/2/6
f 783/2/6 782/2/6 784/2/6
f 785/5/6 786/5/6 789/5/6
f 789/5/6 786/5/6 790/5/6
f 787/2/6 788/2/6 791/2/6
f 791/2/6 788/2/6 792/2/6
f 793/2/6 794/2/6 795/2/6
f 795/2/6 794/2/6 796/2/6
f 797/5/6 798/5/6 801/5/6
f 801/5/6 798/5/6 802/5/6
f 799/2/6 800/2/6 803/2/6
f 803/2/6 800/2/6 804/2/6
f 805/5/6 806/5/6 807/5/6
f 807/5/6 806/5/6 808/5/6
f 809/5/6 810/5/6 811/5/6
f 811/5/6 810/5/6 812/5/6
