# MagicaVoxel @ Ephtracy

# material
mtllib vrjam01_house.mtl
usemtl palette

# normals
vn -1 0 0
vn 1 0 0
vn 0 0 1
vn 0 0 -1
vn 0 -1 0
vn 0 1 0

# texcoords
vt 0.0214844 0.5
vt 0.0253906 0.5
vt 0.0332031 0.5
vt 0.0410156 0.5
vt 0.0449219 0.5
vt 0.0488281 0.5
vt 0.0566406 0.5

# verts
v -8 3 -1
v -8 3 -2
v -8 4 -0
v -8 4 -1
v -8 4 -2
v -8 4 -3
v -8 5 -0
v -8 5 -1
v -8 5 -2
v -8 5 -3
v -8 6 -1
v -8 6 -2
v -7 0 -1
v -7 0 -2
v -7 3 -0
v -7 3 -1
v -7 3 -2
v -7 3 -3
v -7 4 -0
v -7 4 -1
v -7 4 -2
v -7 4 -3
v -7 5 -0
v -7 5 -1
v -7 5 -2
v -7 5 -3
v -7 6 -0
v -7 6 -1
v -7 6 -2
v -7 6 -3
v -3 0 -0
v -3 0 -1
v -3 0 -3
v -3 0 -4
v -3 1 -0
v -3 1 -1
v -3 1 -3
v -3 1 -4
v -3 4 1
v -3 4 -6
v -3 5 1
v -3 5 -6
v -2 0 1
v -2 0 -0
v -2 0 -1
v -2 0 -3
v -2 0 -4
v -2 0 -6
v -2 1 -0
v -2 1 -1
v -2 1 -3
v -2 1 -4
v -2 4 2
v -2 4 1
v -2 4 -6
v -2 4 -7
v -2 5 2
v -2 5 1
v -2 5 -6
v -2 5 -7
v -2 6 1
v -2 6 -6
v -1 6 -0
v -1 6 -1
v -1 8 -0
v -1 8 -1
v 1 0 1
v 1 0 -0
v 1 3 1
v 1 3 -0
v 2 1 -5
v 2 1 -6
v 2 3 -5
v 2 3 -6
v 6 0 -2
v 6 0 -3
v 6 3 -2
v 6 3 -3
v 10 2 -1
v 10 2 -2
v 10 3 -1
v 10 3 -2
v 11 0 -1
v 11 0 -2
v 11 2 -0
v 11 2 -1
v 11 2 -2
v 11 2 -3
v 11 3 -0
v 11 3 -1
v 11 3 -2
v 11 3 -3
v -6 0 -1
v -6 0 -2
v -6 3 -0
v -6 3 -1
v -6 3 -2
v -6 3 -3
v -6 4 -0
v -6 4 -1
v -6 4 -2
v -6 4 -3
v -6 5 -0
v -6 5 -1
v -6 5 -2
v -6 5 -3
v -6 6 -0
v -6 6 -1
v -6 6 -2
v -6 6 -3
v -5 3 -1
v -5 3 -2
v -5 4 -0
v -5 4 -1
v -5 4 -2
v -5 4 -3
v -5 5 -0
v -5 5 -1
v -5 5 -2
v -5 5 -3
v -5 6 -1
v -5 6 -2
v -1 0 1
v -1 0 -0
v -1 1 -5
v -1 1 -6
v -1 3 1
v -1 3 -0
v -1 3 -5
v -1 3 -6
v 0 6 -0
v 0 6 -1
v 0 8 -0
v 0 8 -1
v 3 0 -4
v 3 0 -6
v 3 2 -3
v 3 2 -4
v 3 4 -3
v 3 4 -6
v 3 5 -3
v 3 5 -6
v 3 6 -3
v 3 6 -6
v 4 0 -2
v 4 0 -3
v 4 0 -4
v 4 2 -3
v 4 2 -4
v 4 3 -2
v 4 3 -3
v 4 4 -4
v 4 4 -7
v 4 5 -4
v 4 5 -7
v 7 1 1
v 7 1 -0
v 7 1 -2
v 7 1 -3
v 7 2 -0
v 7 2 -2
v 7 4 2
v 7 4 1
v 7 4 -3
v 7 4 -4
v 7 5 2
v 7 5 1
v 7 5 -3
v 7 5 -4
v 7 6 1
v 7 6 -3
v 8 0 1
v 8 0 -0
v 8 0 -2
v 8 0 -3
v 8 1 1
v 8 1 -0
v 8 1 -2
v 8 1 -3
v 8 2 -0
v 8 2 -2
v 8 4 1
v 8 4 -3
v 8 5 1
v 8 5 -3
v 9 0 -0
v 9 0 -2
v 9 1 -0
v 9 1 -2
v 12 0 -1
v 12 0 -2
v 12 2 -0
v 12 2 -1
v 12 2 -2
v 12 2 -3
v 12 3 -0
v 12 3 -1
v 12 3 -2
v 12 3 -3
v 13 2 -1
v 13 2 -2
v 13 3 -1
v 13 3 -2
v -2 4 2
v -2 5 2
v 7 4 2
v 7 5 2
v -3 4 1
v -3 5 1
v -2 0 1
v -2 4 1
v -2 5 1
v -2 6 1
v -1 0 1
v -1 3 1
v 1 0 1
v 1 3 1
v 7 0 1
v 7 1 1
v 7 4 1
v 7 5 1
v 7 6 1
v 8 0 1
v 8 1 1
v 8 4 1
v 8 5 1
v -8 4 -0
v -8 5 -0
v -7 3 -0
v -7 4 -0
v -7 5 -0
v -7 6 -0
v -6 3 -0
v -6 4 -0
v -6 5 -0
v -6 6 -0
v -5 4 -0
v -5 5 -0
v -3 0 -0
v -3 1 -0
v -2 0 -0
v -2 1 -0
v -1 0 -0
v -1 3 -0
v -1 6 -0
v -1 8 -0
v 0 6 -0
v 0 8 -0
v 1 0 -0
v 1 3 -0
v 7 1 -0
v 7 2 -0
v 8 0 -0
v 8 1 -0
v 8 2 -0
v 9 0 -0
v 9 1 -0
v 11 2 -0
v 11 3 -0
v 12 2 -0
v 12 3 -0
v -8 3 -1
v -8 4 -1
v -8 5 -1
v -8 6 -1
v -7 0 -1
v -7 3 -1
v -7 4 -1
v -7 5 -1
v -7 6 -1
v -6 0 -1
v -6 3 -1
v -6 4 -1
v -6 5 -1
v -6 6 -1
v -5 3 -1
v -5 4 -1
v -5 5 -1
v -5 6 -1
v 10 2 -1
v 10 3 -1
v 11 0 -1
v 11 2 -1
v 11 3 -1
v 12 0 -1
v 12 2 -1
v 12 3 -1
v 13 2 -1
v 13 3 -1
v -3 0 -3
v -3 1 -3
v -2 0 -3
v -2 1 -3
v -3 0 -1
v -3 1 -1
v -2 0 -1
v -2 1 -1
v -1 6 -1
v -1 8 -1
v 0 6 -1
v 0 8 -1
v -8 3 -2
v -8 4 -2
v -8 5 -2
v -8 6 -2
v -7 0 -2
v -7 3 -2
v -7 4 -2
v -7 5 -2
v -7 6 -2
v -6 0 -2
v -6 3 -2
v -6 4 -2
v -6 5 -2
v -6 6 -2
v -5 3 -2
v -5 4 -2
v -5 5 -2
v -5 6 -2
v 4 0 -2
v 4 3 -2
v 6 0 -2
v 6 3 -2
v 7 1 -2
v 7 2 -2
v 8 0 -2
v 8 1 -2
v 8 2 -2
v 9 0 -2
v 9 1 -2
v 10 2 -2
v 10 3 -2
v 11 0 -2
v 11 2 -2
v 11 3 -2
v 12 0 -2
v 12 2 -2
v 12 3 -2
v 13 2 -2
v 13 3 -2
v -8 4 -3
v -8 5 -3
v -7 3 -3
v -7 4 -3
v -7 5 -3
v -7 6 -3
v -6 3 -3
v -6 4 -3
v -6 5 -3
v -6 6 -3
v -5 4 -3
v -5 5 -3
v 3 2 -3
v 3 4 -3
v 3 5 -3
v 3 6 -3
v 4 2 -3
v 4 3 -3
v 6 0 -3
v 6 3 -3
v 7 0 -3
v 7 1 -3
v 7 4 -3
v 7 5 -3
v 7 6 -3
v 8 0 -3
v 8 1 -3
v 8 4 -3
v 8 5 -3
v 11 2 -3
v 11 3 -3
v 12 2 -3
v 12 3 -3
v -3 0 -4
v -3 1 -4
v -2 0 -4
v -2 1 -4
v 3 0 -4
v 3 2 -4
v 4 0 -4
v 4 2 -4
v 4 4 -4
v 4 5 -4
v 7 4 -4
v 7 5 -4
v -1 1 -5
v -1 3 -5
v 2 1 -5
v 2 3 -5
v -3 4 -6
v -3 5 -6
v -2 0 -6
v -2 4 -6
v -2 5 -6
v -2 6 -6
v -1 1 -6
v -1 3 -6
v 2 1 -6
v 2 3 -6
v 3 0 -6
v 3 4 -6
v 3 5 -6
v 3 6 -6
v -2 4 -7
v -2 5 -7
v 4 4 -7
v 4 5 -7
v -2 0 1
v -1 0 1
v 1 0 1
v 7 0 1
v 8 0 1
v -3 0 -0
v -2 0 -0
v -1 0 -0
v 1 0 -0
v 8 0 -0
v 9 0 -0
v -7 0 -1
v -6 0 -1
v -3 0 -1
v -2 0 -1
v -1 0 -1
v 1 0 -1
v 4 0 -1
v 6 0 -1
v 11 0 -1
v 12 0 -1
v -7 0 -2
v -6 0 -2
v 4 0 -2
v 6 0 -2
v 8 0 -2
v 9 0 -2
v 11 0 -2
v 12 0 -2
v -3 0 -3
v -2 0 -3
v 3 0 -3
v 4 0 -3
v 6 0 -3
v 7 0 -3
v 8 0 -3
v -3 0 -4
v -2 0 -4
v 3 0 -4
v 4 0 -4
v -2 0 -6
v 3 0 -6
v 11 2 -0
v 12 2 -0
v 10 2 -1
v 11 2 -1
v 12 2 -1
v 13 2 -1
v 10 2 -2
v 11 2 -2
v 12 2 -2
v 13 2 -2
v 11 2 -3
v 12 2 -3
v -1 3 1
v 1 3 1
v -7 3 -0
v -6 3 -0
v -1 3 -0
v 1 3 -0
v -8 3 -1
v -7 3 -1
v -6 3 -1
v -5 3 -1
v -8 3 -2
v -7 3 -2
v -6 3 -2
v -5 3 -2
v 4 3 -2
v 6 3 -2
v -7 3 -3
v -6 3 -3
v 4 3 -3
v 6 3 -3
v -1 3 -5
v 2 3 -5
v -1 3 -6
v 2 3 -6
v -2 4 2
v 7 4 2
v -3 4 1
v -2 4 1
v 7 4 1
v 8 4 1
v -8 4 -0
v -7 4 -0
v -6 4 -0
v -5 4 -0
v -8 4 -1
v -7 4 -1
v -6 4 -1
v -5 4 -1
v -8 4 -2
v -7 4 -2
v -6 4 -2
v -5 4 -2
v -8 4 -3
v -7 4 -3
v -6 4 -3
v -5 4 -3
v 3 4 -3
v 7 4 -3
v 8 4 -3
v 4 4 -4
v 7 4 -4
v -3 4 -6
v -2 4 -6
v 3 4 -6
v -2 4 -7
v 4 4 -7
v 7 1 1
v 8 1 1
v -3 1 -0
v -2 1 -0
v 7 1 -0
v 8 1 -0
v 9 1 -0
v -3 1 -1
v -2 1 -1
v 7 1 -2
v 8 1 -2
v 9 1 -2
v -3 1 -3
v -2 1 -3
v 7 1 -3
v 8 1 -3
v -3 1 -4
v -2 1 -4
v -1 1 -5
v 2 1 -5
v -1 1 -6
v 2 1 -6
v 7 2 -0
v 8 2 -0
v 7 2 -2
v 8 2 -2
v 3 2 -3
v 4 2 -3
v 3 2 -4
v 4 2 -4
v 11 3 -0
v 12 3 -0
v 10 3 -1
v 11 3 -1
v 12 3 -1
v 13 3 -1
v 10 3 -2
v 11 3 -2
v 12 3 -2
v 13 3 -2
v 11 3 -3
v 12 3 -3
v -2 5 2
v 7 5 2
v -3 5 1
v -2 5 1
v 7 5 1
v 8 5 1
v -8 5 -0
v -7 5 -0
v -6 5 -0
v -5 5 -0
v -8 5 -1
v -7 5 -1
v -6 5 -1
v -5 5 -1
v -8 5 -2
v -7 5 -2
v -6 5 -2
v -5 5 -2
v -8 5 -3
v -7 5 -3
v -6 5 -3
v -5 5 -3
v 3 5 -3
v 7 5 -3
v 8 5 -3
v 4 5 -4
v 7 5 -4
v -3 5 -6
v -2 5 -6
v 3 5 -6
v -2 5 -7
v 4 5 -7
v -2 6 1
v 7 6 1
v -7 6 -0
v -6 6 -0
v -1 6 -0
v 0 6 -0
v -8 6 -1
v -7 6 -1
v -6 6 -1
v -5 6 -1
v -1 6 -1
v 0 6 -1
v -8 6 -2
v -7 6 -2
v -6 6 -2
v -5 6 -2
v -7 6 -3
v -6 6 -3
v 3 6 -3
v 7 6 -3
v -2 6 -6
v 3 6 -6
v -1 8 -0
v 0 8 -0
v -1 8 -1
v 0 8 -1

# faces
f 4/5/1 2/5/1 1/5/1
f 5/5/1 2/5/1 4/5/1
f 7/5/1 4/5/1 3/5/1
f 7/5/1 6/5/1 5/5/1
f 7/5/1 5/5/1 4/5/1
f 8/5/1 6/5/1 7/5/1
f 9/5/1 6/5/1 8/5/1
f 10/5/1 6/5/1 9/5/1
f 11/5/1 9/5/1 8/5/1
f 12/5/1 9/5/1 11/5/1
f 16/1/1 14/1/1 13/1/1
f 17/1/1 14/1/1 16/1/1
f 19/5/1 16/5/1 15/5/1
f 20/5/1 16/5/1 19/5/1
f 21/5/1 18/5/1 17/5/1
f 22/5/1 18/5/1 21/5/1
f 27/5/1 24/5/1 23/5/1
f 28/5/1 24/5/1 27/5/1
f 29/5/1 26/5/1 25/5/1
f 30/5/1 26/5/1 29/5/1
f 35/5/1 32/5/1 31/5/1
f 36/5/1 32/5/1 35/5/1
f 37/5/1 34/5/1 33/5/1
f 38/5/1 34/5/1 37/5/1
f 41/1/1 40/1/1 39/1/1
f 42/1/1 40/1/1 41/1/1
f 49/2/1 44/2/1 43/2/1
f 50/2/1 46/2/1 45/2/1
f 51/2/1 46/2/1 50/2/1
f 52/2/1 48/2/1 47/2/1
f 54/2/1 51/2/1 50/2/1
f 54/2/1 52/2/1 51/2/1
f 54/2/1 49/2/1 43/2/1
f 54/2/1 50/2/1 49/2/1
f 55/2/1 48/2/1 52/2/1
f 55/2/1 52/2/1 54/2/1
f 57/1/1 54/1/1 53/1/1
f 58/1/1 54/1/1 57/1/1
f 59/1/1 56/1/1 55/1/1
f 60/1/1 56/1/1 59/1/1
f 61/1/1 59/1/1 58/1/1
f 62/1/1 59/1/1 61/1/1
f 65/3/1 64/3/1 63/3/1
f 66/3/1 64/3/1 65/3/1
f 69/2/1 68/2/1 67/2/1
f 70/2/1 68/2/1 69/2/1
f 73/2/1 72/2/1 71/2/1
f 74/2/1 72/2/1 73/2/1
f 77/2/1 76/2/1 75/2/1
f 78/2/1 76/2/1 77/2/1
f 81/7/1 80/7/1 79/7/1
f 82/7/1 80/7/1 81/7/1
f 86/5/1 84/5/1 83/5/1
f 87/5/1 84/5/1 86/5/1
f 89/7/1 86/7/1 85/7/1
f 90/7/1 86/7/1 89/7/1
f 91/7/1 88/7/1 87/7/1
f 92/7/1 88/7/1 91/7/1
f 93/1/2 94/1/2 96/1/2
f 96/1/2 94/1/2 97/1/2
f 95/5/2 96/5/2 99/5/2
f 99/5/2 96/5/2 100/5/2
f 97/5/2 98/5/2 101/5/2
f 101/5/2 98/5/2 102/5/2
f 103/5/2 104/5/2 107/5/2
f 107/5/2 104/5/2 108/5/2
f 105/5/2 106/5/2 109/5/2
f 109/5/2 106/5/2 110/5/2
f 111/5/2 112/5/2 114/5/2
f 114/5/2 112/5/2 115/5/2
f 113/5/2 114/5/2 117/5/2
f 115/5/2 116/5/2 117/5/2
f 114/5/2 115/5/2 117/5/2
f 117/5/2 116/5/2 118/5/2
f 118/5/2 116/5/2 119/5/2
f 119/5/2 116/5/2 120/5/2
f 118/5/2 119/5/2 121/5/2
f 121/5/2 119/5/2 122/5/2
f 123/2/2 124/2/2 127/2/2
f 127/2/2 124/2/2 128/2/2
f 125/2/2 126/2/2 129/2/2
f 129/2/2 126/2/2 130/2/2
f 131/3/2 132/3/2 133/3/2
f 133/3/2 132/3/2 134/3/2
f 135/2/2 136/2/2 138/2/2
f 137/2/2 138/2/2 139/2/2
f 138/2/2 136/2/2 140/2/2
f 139/2/2 138/2/2 140/2/2
f 141/1/2 142/1/2 143/1/2
f 143/1/2 142/1/2 144/1/2
f 145/2/2 146/2/2 148/2/2
f 146/5/2 147/5/2 148/5/2
f 148/5/2 147/5/2 149/5/2
f 145/2/2 148/2/2 150/2/2
f 150/2/2 148/2/2 151/2/2
f 152/1/2 153/1/2 154/1/2
f 154/1/2 153/1/2 155/1/2
f 156/2/2 157/2/2 160/2/2
f 158/2/2 159/2/2 161/2/2
f 156/2/2 160/2/2 163/2/2
f 160/2/2 161/2/2 163/2/2
f 161/2/2 159/2/2 164/2/2
f 163/2/2 161/2/2 164/2/2
f 162/1/2 163/1/2 166/1/2
f 166/1/2 163/1/2 167/1/2
f 164/1/2 165/1/2 168/1/2
f 168/1/2 165/1/2 169/1/2
f 167/1/2 168/1/2 170/1/2
f 170/1/2 168/1/2 171/1/2
f 172/5/2 173/5/2 176/5/2
f 176/5/2 173/5/2 177/5/2
f 174/5/2 175/5/2 178/5/2
f 178/5/2 175/5/2 179/5/2
f 177/5/2 178/5/2 180/5/2
f 180/5/2 178/5/2 181/5/2
f 182/1/2 183/1/2 184/1/2
f 184/1/2 183/1/2 185/1/2
f 186/5/2 187/5/2 188/5/2
f 188/5/2 187/5/2 189/5/2
f 190/5/2 191/5/2 193/5/2
f 193/5/2 191/5/2 194/5/2
f 192/7/2 193/7/2 196/7/2
f 196/7/2 193/7/2 197/7/2
f 194/7/2 195/7/2 198/7/2
f 198/7/2 195/7/2 199/7/2
f 200/7/2 201/7/2 202/7/2
f 202/7/2 201/7/2 203/7/2
f 206/1/3 205/1/3 204/1/3
f 207/1/3 205/1/3 206/1/3
f 211/1/3 209/1/3 208/1/3
f 212/1/3 209/1/3 211/1/3
f 214/2/3 211/2/3 210/2/3
f 215/2/3 211/2/3 214/2/3
f 217/2/3 211/2/3 215/2/3
f 218/2/3 217/2/3 216/2/3
f 219/2/3 217/2/3 218/2/3
f 220/2/3 211/2/3 217/2/3
f 220/2/3 217/2/3 219/2/3
f 221/1/3 213/1/3 212/1/3
f 222/1/3 213/1/3 221/1/3
f 223/5/3 219/5/3 218/5/3
f 224/5/3 219/5/3 223/5/3
f 225/1/3 221/1/3 220/1/3
f 226/1/3 221/1/3 225/1/3
f 230/5/3 228/5/3 227/5/3
f 231/5/3 228/5/3 230/5/3
f 233/5/3 230/5/3 229/5/3
f 233/5/3 232/5/3 231/5/3
f 233/5/3 231/5/3 230/5/3
f 234/5/3 232/5/3 233/5/3
f 235/5/3 232/5/3 234/5/3
f 236/5/3 232/5/3 235/5/3
f 237/5/3 235/5/3 234/5/3
f 238/5/3 235/5/3 237/5/3
f 241/5/3 240/5/3 239/5/3
f 242/5/3 240/5/3 241/5/3
f 247/3/3 246/3/3 245/3/3
f 248/3/3 246/3/3 247/3/3
f 249/1/3 244/1/3 243/1/3
f 250/1/3 244/1/3 249/1/3
f 254/5/3 252/5/3 251/5/3
f 255/5/3 252/5/3 254/5/3
f 256/5/3 254/5/3 253/5/3
f 257/5/3 254/5/3 256/5/3
f 260/7/3 259/7/3 258/7/3
f 261/7/3 259/7/3 260/7/3
f 267/5/3 263/5/3 262/5/3
f 268/5/3 263/5/3 267/5/3
f 269/5/3 265/5/3 264/5/3
f 270/5/3 265/5/3 269/5/3
f 271/1/3 267/1/3 266/1/3
f 272/1/3 267/1/3 271/1/3
f 276/5/3 273/5/3 272/5/3
f 277/5/3 273/5/3 276/5/3
f 278/5/3 275/5/3 274/5/3
f 279/5/3 275/5/3 278/5/3
f 283/7/3 281/7/3 280/7/3
f 284/7/3 281/7/3 283/7/3
f 285/5/3 283/5/3 282/5/3
f 286/5/3 283/5/3 285/5/3
f 288/7/3 287/7/3 286/7/3
f 289/7/3 287/7/3 288/7/3
f 292/5/3 291/5/3 290/5/3
f 293/5/3 291/5/3 292/5/3
f 294/5/4 295/5/4 296/5/4
f 296/5/4 295/5/4 297/5/4
f 298/3/4 299/3/4 300/3/4
f 300/3/4 299/3/4 301/3/4
f 302/5/4 303/5/4 307/5/4
f 307/5/4 303/5/4 308/5/4
f 304/5/4 305/5/4 309/5/4
f 309/5/4 305/5/4 310/5/4
f 306/1/4 307/1/4 311/1/4
f 311/1/4 307/1/4 312/1/4
f 312/5/4 313/5/4 316/5/4
f 316/5/4 313/5/4 317/5/4
f 314/5/4 315/5/4 318/5/4
f 318/5/4 315/5/4 319/5/4
f 320/1/4 321/1/4 322/1/4
f 322/1/4 321/1/4 323/1/4
f 324/5/4 325/5/4 327/5/4
f 327/5/4 325/5/4 328/5/4
f 326/5/4 327/5/4 329/5/4
f 329/5/4 327/5/4 330/5/4
f 331/7/4 332/7/4 334/7/4
f 334/7/4 332/7/4 335/7/4
f 333/5/4 334/5/4 336/5/4
f 336/5/4 334/5/4 337/5/4
f 337/7/4 338/7/4 339/7/4
f 339/7/4 338/7/4 340/7/4
f 341/5/4 342/5/4 344/5/4
f 344/5/4 342/5/4 345/5/4
f 343/5/4 344/5/4 347/5/4
f 345/5/4 346/5/4 347/5/4
f 344/5/4 345/5/4 347/5/4
f 347/5/4 346/5/4 348/5/4
f 348/5/4 346/5/4 349/5/4
f 349/5/4 346/5/4 350/5/4
f 348/5/4 349/5/4 351/5/4
f 351/5/4 349/5/4 352/5/4
f 353/2/4 354/2/4 357/2/4
f 357/2/4 354/2/4 358/2/4
f 358/2/4 354/2/4 360/2/4
f 359/2/4 360/2/4 361/2/4
f 361/2/4 360/2/4 362/2/4
f 360/2/4 354/2/4 363/2/4
f 362/2/4 360/2/4 363/2/4
f 355/1/4 356/1/4 364/1/4
f 364/1/4 356/1/4 365/1/4
f 361/5/4 362/5/4 366/5/4
f 366/5/4 362/5/4 367/5/4
f 363/1/4 364/1/4 368/1/4
f 368/1/4 364/1/4 369/1/4
f 370/7/4 371/7/4 372/7/4
f 372/7/4 371/7/4 373/7/4
f 374/5/4 375/5/4 376/5/4
f 376/5/4 375/5/4 377/5/4
f 378/5/4 379/5/4 380/5/4
f 380/5/4 379/5/4 381/5/4
f 382/1/4 383/1/4 384/1/4
f 384/1/4 383/1/4 385/1/4
f 386/6/4 387/6/4 388/6/4
f 388/6/4 387/6/4 389/6/4
f 390/1/4 391/1/4 393/1/4
f 393/1/4 391/1/4 394/1/4
f 392/2/4 393/2/4 396/2/4
f 396/2/4 393/2/4 397/2/4
f 392/2/4 396/2/4 398/2/4
f 397/2/4 393/2/4 399/2/4
f 392/2/4 398/2/4 400/2/4
f 398/2/4 399/2/4 400/2/4
f 399/2/4 393/2/4 401/2/4
f 400/2/4 399/2/4 401/2/4
f 394/1/4 395/1/4 402/1/4
f 402/1/4 395/1/4 403/1/4
f 404/1/4 405/1/4 406/1/4
f 406/1/4 405/1/4 407/1/4
f 414/2/5 409/2/5 408/2/5
f 415/2/5 409/2/5 414/2/5
f 416/2/5 411/2/5 410/2/5
f 417/5/5 412/5/5 411/5/5
f 421/5/5 414/5/5 413/5/5
f 422/2/5 415/2/5 414/2/5
f 422/5/5 414/5/5 421/5/5
f 423/1/5 416/1/5 415/1/5
f 423/2/5 415/2/5 422/2/5
f 424/2/5 411/2/5 416/2/5
f 424/1/5 416/1/5 423/1/5
f 425/2/5 411/2/5 424/2/5
f 426/2/5 411/2/5 425/2/5
f 429/1/5 420/1/5 419/1/5
f 430/1/5 420/1/5 429/1/5
f 431/2/5 423/2/5 422/2/5
f 431/2/5 424/2/5 423/2/5
f 431/2/5 425/2/5 424/2/5
f 431/1/5 426/1/5 425/1/5
f 432/2/5 411/2/5 426/2/5
f 432/1/5 426/1/5 431/1/5
f 433/5/5 417/5/5 411/5/5
f 433/5/5 418/5/5 417/5/5
f 434/5/5 418/5/5 433/5/5
f 435/5/5 428/5/5 427/5/5
f 436/5/5 428/5/5 435/5/5
f 438/2/5 431/2/5 422/2/5
f 439/2/5 431/2/5 438/2/5
f 440/2/5 431/2/5 439/2/5
f 441/2/5 411/2/5 432/2/5
f 442/5/5 433/5/5 411/5/5
f 442/2/5 411/2/5 441/2/5
f 443/5/5 433/5/5 442/5/5
f 444/5/5 438/5/5 437/5/5
f 445/2/5 439/2/5 438/2/5
f 445/5/5 438/5/5 444/5/5
f 446/5/5 440/5/5 439/5/5
f 446/2/5 439/2/5 445/2/5
f 447/5/5 440/5/5 446/5/5
f 448/2/5 446/2/5 445/2/5
f 449/2/5 446/2/5 448/2/5
f 453/7/5 451/7/5 450/7/5
f 454/7/5 451/7/5 453/7/5
f 456/7/5 453/7/5 452/7/5
f 457/7/5 453/7/5 456/7/5
f 458/7/5 455/7/5 454/7/5
f 459/7/5 455/7/5 458/7/5
f 460/7/5 458/7/5 457/7/5
f 461/7/5 458/7/5 460/7/5
f 466/2/5 463/2/5 462/2/5
f 467/2/5 463/2/5 466/2/5
f 469/5/5 465/5/5 464/5/5
f 470/5/5 465/5/5 469/5/5
f 472/5/5 469/5/5 468/5/5
f 473/5/5 469/5/5 472/5/5
f 474/5/5 471/5/5 470/5/5
f 475/5/5 471/5/5 474/5/5
f 478/5/5 474/5/5 473/5/5
f 479/5/5 474/5/5 478/5/5
f 480/2/5 477/2/5 476/2/5
f 481/2/5 477/2/5 480/2/5
f 484/2/5 483/2/5 482/2/5
f 485/2/5 483/2/5 484/2/5
f 489/1/5 487/1/5 486/1/5
f 490/1/5 487/1/5 489/1/5
f 496/5/5 493/5/5 492/5/5
f 497/5/5 493/5/5 496/5/5
f 498/5/5 495/5/5 494/5/5
f 499/5/5 495/5/5 498/5/5
f 504/5/5 501/5/5 500/5/5
f 505/5/5 501/5/5 504/5/5
f 506/5/5 503/5/5 502/5/5
f 507/5/5 503/5/5 506/5/5
f 509/1/5 491/1/5 490/1/5
f 510/1/5 491/1/5 509/1/5
f 511/1/5 509/1/5 508/1/5
f 512/1/5 509/1/5 511/1/5
f 513/1/5 489/1/5 488/1/5
f 514/1/5 489/1/5 513/1/5
f 515/1/5 511/1/5 508/1/5
f 516/1/5 515/1/5 514/1/5
f 517/1/5 511/1/5 515/1/5
f 517/1/5 515/1/5 516/1/5
f 518/5/6 519/5/6 522/5/6
f 522/5/6 519/5/6 523/5/6
f 520/5/6 521/5/6 525/5/6
f 525/5/6 521/5/6 526/5/6
f 523/5/6 524/5/6 528/5/6
f 528/5/6 524/5/6 529/5/6
f 527/5/6 528/5/6 532/5/6
f 532/5/6 528/5/6 533/5/6
f 530/5/6 531/5/6 534/5/6
f 534/5/6 531/5/6 535/5/6
f 536/2/6 537/2/6 538/2/6
f 538/2/6 537/2/6 539/2/6
f 540/5/6 541/5/6 542/5/6
f 542/5/6 541/5/6 543/5/6
f 544/5/6 545/5/6 546/5/6
f 546/5/6 545/5/6 547/5/6
f 548/7/6 549/7/6 551/7/6
f 551/7/6 549/7/6 552/7/6
f 550/7/6 551/7/6 554/7/6
f 551/4/6 552/4/6 555/4/6
f 554/7/6 551/7/6 555/7/6
f 552/7/6 553/7/6 556/7/6
f 555/4/6 552/4/6 556/4/6
f 556/7/6 553/7/6 557/7/6
f 555/7/6 556/7/6 558/7/6
f 558/7/6 556/7/6 559/7/6
f 560/1/6 561/1/6 563/1/6
f 563/1/6 561/1/6 564/1/6
f 566/5/6 567/5/6 570/5/6
f 570/5/6 567/5/6 571/5/6
f 568/5/6 569/5/6 572/5/6
f 572/5/6 569/5/6 573/5/6
f 574/5/6 575/5/6 578/5/6
f 578/5/6 575/5/6 579/5/6
f 576/5/6 577/5/6 580/5/6
f 580/5/6 577/5/6 581/5/6
f 564/1/6 565/1/6 583/1/6
f 583/1/6 565/1/6 584/1/6
f 582/1/6 583/1/6 585/1/6
f 585/1/6 583/1/6 586/1/6
f 562/1/6 563/1/6 587/1/6
f 587/1/6 563/1/6 588/1/6
f 582/1/6 585/1/6 589/1/6
f 588/1/6 589/1/6 590/1/6
f 589/1/6 585/1/6 591/1/6
f 590/1/6 589/1/6 591/1/6
f 592/1/6 593/1/6 596/1/6
f 596/1/6 593/1/6 597/1/6
f 594/5/6 595/5/6 599/5/6
f 599/5/6 595/5/6 600/5/6
f 592/1/6 596/1/6 602/1/6
f 597/1/6 593/1/6 603/1/6
f 600/5/6 601/5/6 604/5/6
f 598/5/6 599/5/6 604/5/6
f 599/5/6 600/5/6 604/5/6
f 604/5/6 601/5/6 605/5/6
f 605/5/6 601/5/6 606/5/6
f 606/5/6 601/5/6 607/5/6
f 605/5/6 606/5/6 608/5/6
f 608/5/6 606/5/6 609/5/6
f 602/1/6 603/1/6 610/1/6
f 603/1/6 593/1/6 610/1/6
f 610/1/6 593/1/6 611/1/6
f 592/1/6 602/1/6 612/1/6
f 602/1/6 610/1/6 612/1/6
f 612/1/6 610/1/6 613/1/6
f 614/3/6 615/3/6 616/3/6
f 616/3/6 615/3/6 617/3/6
