# Blender v2.78 (sub 0) OBJ File: 'frame.fbx'
# www.blender.org
mtllib anchor.mtl
o Anchor_Plane.001
v 0.100000 0.600000 0.050000
v 0.200000 0.500000 0.050000
v 0.200000 0.300000 0.050000
v 0.100000 0.200000 0.050000
v 0.300000 0.200000 0.050000
v 0.400000 0.100000 0.050000
v 0.300000 -0.000000 0.050000
v 0.100000 -0.000000 0.050000
v 0.100000 -0.300000 0.050000
v 0.300000 -0.300000 0.050000
v 0.600000 -0.000000 0.050000
v 0.600000 -0.400000 0.050000
v 0.400000 -0.600000 0.050000
v -0.100000 0.400000 0.050000
v 0.000000 0.600000 0.050000
v -0.100000 0.600000 0.050000
v -0.200000 0.500000 0.050000
v -0.200000 0.300000 0.050000
v -0.100000 0.200000 0.050000
v -0.300000 0.200000 0.050000
v -0.400000 0.100000 0.050000
v -0.300000 -0.000000 0.050000
v -0.100000 -0.000000 0.050000
v -0.100000 -0.300000 0.050000
v -0.300000 -0.300000 0.050000
v -0.600000 -0.000000 0.050000
v -0.600000 -0.400000 0.050000
v -0.400000 -0.600000 0.050000
v 0.000000 -0.600000 0.050000
v 0.000000 0.500000 0.050000
v 0.100000 0.400000 0.050000
v 0.000000 0.300000 0.050000
v 0.100000 0.600000 -0.050000
v 0.200000 0.500000 -0.050000
v 0.200000 0.300000 -0.050000
v 0.100000 0.200000 -0.050000
v 0.300000 0.200000 -0.050000
v 0.400000 0.100000 -0.050000
v 0.300000 -0.000000 -0.050000
v 0.100000 -0.000000 -0.050000
v 0.100000 -0.300000 -0.050000
v 0.300000 -0.300000 -0.050000
v 0.600000 -0.000000 -0.050000
v 0.600000 -0.400000 -0.050000
v 0.400000 -0.600000 -0.050000
v -0.100000 0.400000 -0.050000
v -0.000000 0.600000 -0.050000
v -0.100000 0.600000 -0.050000
v -0.200000 0.500000 -0.050000
v -0.200000 0.300000 -0.050000
v -0.100000 0.200000 -0.050000
v -0.300000 0.200000 -0.050000
v -0.400000 0.100000 -0.050000
v -0.300000 -0.000000 -0.050000
v -0.100000 -0.000000 -0.050000
v -0.100000 -0.300000 -0.050000
v -0.300000 -0.300000 -0.050000
v -0.600000 -0.000000 -0.050000
v -0.600000 -0.400000 -0.050000
v -0.400000 -0.600000 -0.050000
v -0.000000 -0.600000 -0.050000
v -0.000000 0.500000 -0.050000
v 0.100000 0.400000 -0.050000
v -0.000000 0.300000 -0.050000
vn 0.0000 0.0000 1.0000
vn -0.0000 -0.0000 -1.0000
vn -0.2971 0.7173 0.6302
vn -0.1974 0.0817 0.9769
vn -0.1973 0.0819 -0.9769
vn -0.2971 0.7173 -0.6303
vn 0.2971 -0.7173 0.6303
vn 0.3015 -0.3015 0.9045
vn 0.3015 -0.3015 -0.9045
vn 0.2971 -0.7173 -0.6302
vn -0.8165 -0.0000 0.5773
vn -0.8165 -0.0003 -0.5773
vn 0.3015 0.3015 0.9045
vn 0.3017 0.3013 -0.9045
vn -0.2971 -0.7173 0.6303
vn -0.2971 -0.7173 -0.6302
vn -0.2275 0.5491 0.8042
vn -0.2275 0.5491 -0.8042
vn -0.3015 -0.3015 0.9045
vn -0.3015 -0.3015 -0.9045
vn 0.3203 0.7735 0.5469
vn 0.3205 0.7734 -0.5469
vn -0.3014 0.3017 0.9045
vn -0.3015 0.3015 -0.9045
vn 0.7173 -0.2971 0.6303
vn 0.7173 -0.2971 -0.6303
vn 0.2275 0.5491 0.8042
vn 0.2275 0.5491 -0.8042
vn -0.3204 0.7735 0.5469
vn -0.3201 0.7735 -0.5469
vn 0.0000 -0.7071 0.7071
vn -0.0000 -0.7071 -0.7071
vn -0.0000 0.7071 0.7071
vn 0.2971 0.7173 0.6302
vn 0.2972 0.7173 -0.6303
vn 0.0000 0.7071 -0.7071
vn -0.7173 -0.2971 0.6303
vn -0.7173 -0.2971 -0.6303
vn -0.0000 -0.4264 0.9045
vn 0.4264 -0.0000 0.9045
vn 0.4264 -0.0000 -0.9045
vn -0.0000 -0.4264 -0.9045
vn 0.7173 0.2972 0.6302
vn 0.7173 0.2971 -0.6303
vn -0.2971 -0.7173 -0.6303
vn 0.0000 0.4264 0.9045
vn 0.0000 0.4264 -0.9045
vn 0.7173 -0.2971 0.6302
vn -0.2970 0.7173 0.6303
vn -0.2970 0.7173 -0.6302
vn 0.1974 0.0817 0.9769
vn 0.1974 0.0817 -0.9769
vn -0.4264 0.0000 0.9045
vn -0.4264 0.0000 -0.9045
vn -0.7173 0.2971 0.6303
vn -0.7173 0.2971 -0.6302
vn 0.2971 0.7173 -0.6303
vn -0.7173 -0.2971 -0.6302
vn 0.8165 -0.0003 0.5773
vn 0.8165 -0.0003 -0.5773
usemtl None
s 1
f 15//1 16//1 30//1
f 1//1 15//1 30//1
f 2//1 1//1 30//1
f 30//1 17//1 14//1
f 14//1 17//1 18//1
f 25//1 29//1 24//1
f 31//1 2//1 30//1
f 31//1 3//1 2//1
f 18//1 32//1 14//1
f 32//1 3//1 31//1
f 19//1 32//1 18//1
f 32//1 4//1 3//1
f 19//1 4//1 32//1
f 19//1 20//1 22//1
f 7//1 5//1 4//1
f 6//1 5//1 7//1
f 30//1 16//1 17//1
f 19//1 23//1 4//1
f 4//1 8//1 7//1
f 27//1 25//1 26//1
f 22//1 23//1 19//1
f 24//1 8//1 23//1
f 23//1 8//1 4//1
f 24//1 9//1 8//1
f 10//1 12//1 11//1
f 28//1 25//1 27//1
f 22//1 20//1 21//1
f 10//1 29//1 13//1
f 10//1 13//1 12//1
f 24//1 29//1 9//1
f 28//1 29//1 25//1
f 9//1 29//1 10//1
f 47//2 62//2 48//2
f 33//2 62//2 47//2
f 34//2 62//2 33//2
f 62//2 46//2 49//2
f 46//2 50//2 49//2
f 57//2 56//2 61//2
f 63//2 62//2 34//2
f 63//2 34//2 35//2
f 50//2 46//2 64//2
f 64//2 63//2 35//2
f 51//2 50//2 64//2
f 64//2 35//2 36//2
f 51//2 64//2 36//2
f 51//2 54//2 52//2
f 39//2 36//2 37//2
f 38//2 39//2 37//2
f 62//2 49//2 48//2
f 51//2 36//2 55//2
f 36//2 39//2 40//2
f 59//2 58//2 57//2
f 54//2 51//2 55//2
f 56//2 55//2 40//2
f 55//2 36//2 40//2
f 56//2 40//2 41//2
f 42//2 43//2 44//2
f 60//2 59//2 57//2
f 54//2 53//2 52//2
f 42//2 45//2 61//2
f 42//2 44//2 45//2
f 56//2 41//2 61//2
f 60//2 57//2 61//2
f 41//2 42//2 61//2
f 20//3 19//4 51//5 52//6
f 7//7 8//8 40//9 39//10
f 21//11 20//3 52//6 53//12
f 8//8 9//13 41//14 40//9
f 22//15 21//11 53//12 54//16
f 9//13 10//17 42//18 41//14
f 23//19 22//15 54//16 55//20
f 10//17 11//21 43//22 42//18
f 24//23 23//19 55//20 56//24
f 11//21 12//25 44//26 43//22
f 25//27 24//23 56//24 57//28
f 12//25 13//7 45//10 44//26
f 26//29 25//27 57//28 58//30
f 13//7 29//31 61//32 45//10
f 15//33 1//34 33//35 47//36
f 27//37 26//29 58//30 59//38
f 30//39 14//40 46//41 62//42
f 1//34 2//43 34//44 33//35
f 28//15 27//37 59//38 60//45
f 14//40 32//46 64//47 46//41
f 2//43 3//48 35//26 34//44
f 29//31 28//15 60//45 61//32
f 16//49 15//33 47//36 48//50
f 3//48 4//51 36//52 35//26
f 31//53 30//39 62//42 63//54
f 17//55 16//49 48//50 49//56
f 4//51 5//34 37//57 36//52
f 32//46 31//53 63//54 64//47
f 18//37 17//55 49//56 50//58
f 5//34 6//59 38//60 37//57
f 19//4 18//37 50//58 51//5
f 6//59 7//7 39//10 38//60
